<svg width="789" height="678" viewBox="0 0 789 678" fill="none" xmlns="http://www.w3.org/2000/svg">
<path d="M304.16 615.009C282.387 615.034 260.961 612.151 239.884 606.36C218.806 600.568 198.755 592.056 179.731 580.821L178.883 580.315C149.464 562.783 18.8012 479.393 1.83891 335.073C-0.389984 315.295 -0.592689 295.493 1.23079 275.668C3.05428 255.843 6.86148 236.456 12.6524 217.508C17.9531 201.179 28.7984 168.374 56.2879 135.929C89.9475 96.1972 128.378 80.8239 150.863 72.0857C167.838 65.6112 185.247 60.9667 203.089 58.1522C220.932 55.3377 238.861 54.4079 256.878 55.3629C277.296 56.0714 313.341 57.6121 354.316 76.6516C381.042 89.0222 397.665 103.158 422.165 124.267C460.966 157.747 466.065 171.68 533.936 240.809C552.563 259.782 567.86 274.739 591.258 289.471C607.467 299.682 620.571 305.384 644.753 315.809C704.121 341.416 721.083 346.601 740.547 361.018C778.363 389.133 775.914 419.688 777.536 426.245C781.812 443.281 782.774 460.525 780.419 477.976C775.458 512.592 757.881 535.219 746.972 548.916C731.861 567.709 714.03 582.91 693.477 594.519L693.053 594.755C680.96 601.447 668.287 606.505 655.035 609.928C641.783 613.352 628.337 615.042 614.697 614.998L304.16 615.009Z" fill="#CDDDEE"/>
<path d="M248.691 53.5146C248.691 56.9913 248.358 60.4346 247.692 63.8445C247.026 67.2544 246.04 70.5654 244.734 73.7775C243.428 76.9895 241.827 80.041 239.931 82.9317C238.035 85.8225 235.881 88.4971 233.467 90.9555C231.054 93.4139 228.429 95.6089 225.591 97.5404C222.753 99.472 219.758 101.103 216.605 102.433C213.452 103.764 210.202 104.768 206.855 105.447C203.508 106.125 200.128 106.464 196.715 106.464C193.302 106.464 189.922 106.125 186.575 105.447C183.228 104.768 179.977 103.764 176.824 102.433C173.671 101.103 170.676 99.472 167.839 97.5404C165.001 95.6089 162.375 93.4139 159.962 90.9555C157.549 88.4971 155.394 85.8225 153.498 82.9317C151.602 80.0409 150.001 76.9895 148.695 73.7775C147.389 70.5654 146.403 67.2544 145.738 63.8445C145.072 60.4346 144.739 56.9913 144.739 53.5146C144.739 50.0379 145.072 46.5946 145.738 43.1847C146.403 39.7748 147.389 36.4638 148.695 33.2517C150.001 30.0397 151.602 26.9883 153.498 24.0975C155.394 21.2067 157.549 18.5321 159.962 16.0737C162.375 13.6153 165.001 11.4203 167.839 9.48876C170.676 7.55721 173.671 5.92619 176.824 4.59571C179.977 3.26524 183.228 2.26086 186.575 1.58259C189.922 0.90432 193.302 0.565186 196.715 0.565186C200.128 0.565186 203.508 0.90432 206.855 1.58259C210.202 2.26086 213.452 3.26524 216.605 4.59571C219.758 5.92619 222.753 7.55721 225.591 9.48876C228.429 11.4203 231.054 13.6153 233.467 16.0737C235.881 18.5321 238.035 21.2067 239.931 24.0975C241.827 26.9883 243.428 30.0397 244.734 33.2517C246.04 36.4638 247.026 39.7748 247.692 43.1847C248.358 46.5946 248.691 50.0379 248.691 53.5146Z" fill="white"/>
<path d="M196.715 107.026C193.266 107.026 189.85 106.684 186.467 105.998C183.084 105.313 179.8 104.298 176.613 102.953C173.427 101.608 170.4 99.96 167.532 98.008C164.664 96.0559 162.011 93.8376 159.572 91.3531C157.133 88.8686 154.956 86.1656 153.04 83.2442C151.123 80.3227 149.505 77.2389 148.185 73.9927C146.866 70.7465 145.869 67.4004 145.196 63.9543C144.523 60.5082 144.187 57.0283 144.187 53.5147C144.187 50.0011 144.523 46.5212 145.196 43.0751C145.869 39.629 146.866 36.2828 148.185 33.0367C149.505 29.7905 151.123 26.7067 153.04 23.7852C154.956 20.8637 157.133 18.1607 159.572 15.6762C162.011 13.1917 164.664 10.9734 167.532 9.02138C170.4 7.06932 173.427 5.42099 176.613 4.07638C179.8 2.73178 183.084 1.71674 186.467 1.03126C189.85 0.345788 193.266 0.00305176 196.715 0.00305176C200.164 0.00305176 203.58 0.345788 206.963 1.03126C210.345 1.71674 213.63 2.73178 216.816 4.07638C220.003 5.42098 223.03 7.06932 225.898 9.02138C228.765 10.9734 231.419 13.1917 233.858 15.6762C236.296 18.1607 238.474 20.8637 240.39 23.7852C242.306 26.7067 243.924 29.7905 245.244 33.0367C246.564 36.2828 247.56 39.629 248.233 43.0751C248.906 46.5212 249.243 50.0011 249.243 53.5147C249.238 57.0271 248.898 60.5054 248.222 63.9496C247.547 67.3939 246.548 70.7381 245.227 73.9822C243.905 77.2264 242.286 80.3084 240.37 83.2282C238.453 86.1481 236.276 88.8498 233.838 91.3334C231.4 93.817 228.748 96.035 225.882 97.9873C223.016 99.9396 219.991 101.589 216.806 102.935C213.622 104.281 210.339 105.298 206.958 105.987C203.577 106.675 200.163 107.022 196.715 107.026ZM196.715 1.12748C193.338 1.12748 189.994 1.46301 186.682 2.13408C183.371 2.80515 180.155 3.79886 177.036 5.11521C173.916 6.43157 170.953 8.04527 168.145 9.95631C165.338 11.8674 162.74 14.039 160.353 16.4713C157.965 18.9036 155.833 21.5498 153.957 24.4099C152.081 27.27 150.497 30.289 149.205 33.467C147.913 36.6449 146.938 39.9208 146.279 43.2945C145.62 46.6681 145.291 50.0749 145.291 53.5147C145.291 56.9545 145.62 60.3612 146.279 63.7349C146.938 67.1086 147.913 70.3844 149.205 73.5624C150.497 76.7404 152.081 79.7594 153.957 82.6195C155.833 85.4795 157.965 88.1257 160.353 90.558C162.74 92.9903 165.338 95.162 168.145 97.0731C170.953 98.9841 173.916 100.598 177.036 101.914C180.155 103.231 183.371 104.224 186.682 104.895C189.994 105.566 193.338 105.902 196.715 105.902C200.091 105.902 203.435 105.566 206.747 104.895C210.059 104.224 213.274 103.231 216.394 101.914C219.514 100.598 222.477 98.9841 225.285 97.0731C228.092 95.162 230.69 92.9903 233.077 90.558C235.465 88.1257 237.596 85.4796 239.472 82.6195C241.348 79.7594 242.932 76.7404 244.224 73.5624C245.517 70.3845 246.492 67.1086 247.151 63.7349C247.81 60.3612 248.139 56.9545 248.139 53.5147C248.136 50.0759 247.803 46.6705 247.142 43.2984C246.481 39.9262 245.503 36.652 244.21 33.4757C242.916 30.2994 241.332 27.2819 239.455 24.4232C237.579 21.5645 235.448 18.9194 233.061 16.4878C230.674 14.0562 228.078 11.8848 225.271 9.97358C222.465 8.06234 219.503 6.44789 216.385 5.13024C213.268 3.81258 210.054 2.81696 206.743 2.14338C203.433 1.46981 200.09 1.13117 196.715 1.12748Z" fill="#598DC7"/>
<path d="M241.947 265.042L272.962 221.842L248.812 181.115L241.947 265.042Z" fill="#598DC7"/>
<path d="M81.1956 529.587L93.6349 589.261L105.666 609.287L118.911 600.303L121.317 520.198L81.1956 529.587Z" fill="white"/>
<path d="M105.467 610.085L93.061 589.373L80.5113 529.171L121.858 519.479L119.419 600.606L105.467 610.085ZM94.1206 589.047L105.809 608.5L118.326 599.988L120.743 520.929L81.8468 530.037L94.1206 589.047Z" fill="#598DC7"/>
<path d="M142.211 622.465C135.07 630.179 110.059 656.861 94.0322 669.365C94.0322 669.365 72.8842 687.356 60.6546 671.4C59.5455 669.96 58.7876 668.348 58.3809 666.565C57.7369 663.8 58.0312 661.143 59.2639 658.593C60.6215 655.782 63.1381 652.499 67.6304 648.979C69.6043 647.436 71.4438 645.742 73.1491 643.897C75.9008 640.932 78.1966 637.637 80.0366 634.013C83.3479 627.559 85.9859 619.261 84.0322 611.333C84.0322 611.333 74.4074 585.989 89.253 583.953C89.253 583.953 108.105 581.086 105.302 603.564C105.302 603.564 115.732 605.205 120.545 593.758C120.545 593.758 124.154 579.04 133.436 605.115C134.547 608.251 136.184 611.07 138.348 613.571L142.311 618.136C142.847 618.762 143.106 619.49 143.087 620.32C143.068 621.151 142.776 621.866 142.211 622.465Z" fill="#598DC7"/>
<path d="M333.934 576.184L333.537 523.459L786.464 362.025L787.27 400.851L333.934 576.184Z" fill="white"/>
<path d="M333.393 576.993L332.985 523.021L333.349 522.886L786.993 361.193L787.821 401.189L787.457 401.335L333.393 576.993ZM334.089 523.864L334.486 575.374L786.707 400.469L785.934 362.812L334.089 523.864Z" fill="#598DC7"/>
<path d="M333.934 576.184L90.0256 458.883L92.8292 410.667L333.537 523.459L333.934 576.184Z" fill="white"/>
<path d="M334.497 577.072L89.4628 459.232V458.861L92.3105 409.813L93.05 410.15L334.089 523.099V523.459L334.497 577.072ZM90.5665 458.546L333.393 575.295L332.996 523.819L93.3259 411.522L90.5665 458.546Z" fill="#598DC7"/>
<path d="M530.911 297.865L786.463 362.025L333.537 523.459L92.8292 410.667L530.911 297.865Z" fill="white"/>
<path d="M333.504 524.066L333.305 523.976L91.1735 410.51L92.6967 410.116L530.889 297.28H531.032L788.395 361.935L786.651 362.564L333.504 524.066ZM94.4848 410.814L333.57 522.852L784.532 362.126L530.922 298.449L94.4848 410.814Z" fill="#598DC7"/>
<path d="M532.125 306.039L756.375 362.44L335.546 511.203L116.902 411.477L532.125 306.039Z" fill="#598DC7"/>
<path d="M531.716 311.763L747.071 365.33L335.546 511.203L123.602 414.479L531.716 311.763Z" fill="white"/>
<path d="M335.512 511.81L335.314 511.709L121.913 414.333L123.469 413.94L531.716 311.178H531.849L749.013 365.207L335.512 511.81ZM125.335 414.637L335.612 510.596L745.106 365.432L531.716 312.336L125.335 414.637Z" fill="#598DC7"/>
<path d="M460.314 340.368L498.824 354.67L553.383 338.321L515.668 326.47L460.314 340.368Z" fill="white"/>
<path d="M498.802 355.266L498.637 355.199L458.416 340.267L515.69 325.885L555.293 338.333L498.802 355.266ZM462.202 340.469L498.835 354.086L551.474 338.344L515.657 327.1L462.202 340.469Z" fill="#598DC7"/>
<path d="M372.047 366.938L401.738 382.871L465.127 364.892L431.418 350.994L372.047 366.938Z" fill="white"/>
<path d="M401.672 383.478L370.535 366.758L431.462 350.398L431.628 350.477L466.837 364.993L401.672 383.478ZM373.559 367.107L401.804 382.275L463.416 364.791L431.407 351.59L373.559 367.107Z" fill="#598DC7"/>
<path d="M512.864 360.394L557.798 376.327L620.779 356.312L571.43 341.998L512.864 360.394Z" fill="white"/>
<path d="M557.787 376.923L557.611 376.867L511.098 360.36L571.43 341.414H571.584L622.71 356.234L557.787 376.923ZM514.63 360.428L557.809 375.742L618.847 356.335L571.386 342.594L514.63 360.428Z" fill="#598DC7"/>
<path d="M577.456 382.871L620.779 398.399L686.574 374.292L644.454 362.025L577.456 382.871Z" fill="white"/>
<path d="M620.778 398.995L620.591 398.928L575.668 382.837L644.421 361.474H644.575L688.35 374.213L620.778 398.995ZM579.222 382.905L620.778 397.803L684.796 374.348L644.476 362.621L579.222 382.905Z" fill="#598DC7"/>
<path d="M420.59 388.999L458.703 407.395L521.694 387.369L478.758 369.794L420.59 388.999Z" fill="white"/>
<path d="M458.67 407.991L458.482 407.901L419.111 388.909L478.791 369.198L523.339 387.436L458.67 407.991ZM422.091 389.101L458.758 406.788L520.061 387.302L478.758 370.435L422.091 389.101Z" fill="#598DC7"/>
<path d="M474.751 415.154L513.262 436L581.463 411.477L539.741 395.139L474.751 415.154Z" fill="white"/>
<path d="M513.218 436.596L513.008 436.472L473.273 414.996L539.73 394.521L583.03 411.477L513.218 436.596ZM476.187 415.232L513.306 435.325L579.874 411.387L539.719 395.645L476.187 415.232Z" fill="#598DC7"/>
<path d="M435.436 427.421L476.352 445.401L395.314 472.78L363.228 449.898L435.436 427.421Z" fill="white"/>
<path d="M395.226 473.41L361.98 449.696L435.491 426.825L435.678 426.904L477.93 445.468L395.226 473.41ZM364.464 450.09L395.369 472.15L474.773 445.322L435.369 428.006L364.464 450.09Z" fill="#598DC7"/>
<path d="M378.062 401.267L418.99 419.246L337.952 446.626L305.854 423.744L378.062 401.267Z" fill="white"/>
<path d="M337.863 447.244L304.607 423.542L378.095 400.615L378.283 400.705L420.535 419.269L337.863 447.244ZM307.102 423.947L338.007 446.007L417.4 419.179L378.095 401.863L307.102 423.947Z" fill="#598DC7"/>
<path d="M274.563 225.114L346.771 230.016L342.764 272.115L329.122 384.502L273.36 395.139L236.252 383.58L258.912 245.14L274.563 225.114Z" fill="white"/>
<path d="M273.327 395.713H273.194L235.666 384.019L235.755 383.535L258.437 244.949L258.525 244.837L274.353 224.597L347.422 229.556L343.36 272.228L329.618 384.986L273.327 395.713ZM236.903 383.186L273.426 394.554L328.614 384.03L342.201 272.048L346.164 230.545L274.806 225.699L259.43 245.376L236.903 383.186Z" fill="#598DC7"/>
<path d="M277.289 227.948C277.289 227.948 258.89 256.992 253.702 303.588C253.702 303.588 246.881 359.169 249.287 386.144L211.98 381.241C211.98 381.241 212.786 358.753 226.02 319.116C226.02 319.116 246.538 229.162 266.969 221.64C266.969 221.64 273.989 225.879 277.289 227.948Z" fill="white"/>
<path d="M249.905 386.785L211.428 381.725V381.219C211.428 380.994 212.388 358.201 225.501 318.936C226.329 315.304 246.307 228.69 266.781 221.111L267.024 221.021L267.256 221.156C267.322 221.156 274.309 225.417 277.576 227.475L278.051 227.768L277.753 228.251C277.565 228.543 259.386 257.745 254.254 303.588C254.177 304.15 247.466 359.427 249.839 386.031L249.905 386.785ZM212.532 380.746L248.658 385.491C246.45 358.505 253.073 304.071 253.128 303.52C257.94 260.578 274.099 232.153 276.506 228.184C273.459 226.283 268.062 223.034 266.892 222.325C247.024 230.309 226.737 318.408 226.538 319.296C214.563 355.177 212.775 377.182 212.532 380.746Z" fill="#598DC7"/>
<path d="M246.881 279.885C246.881 279.885 226.881 364.476 227.62 383.276Z" fill="white"/>
<path d="M227.068 383.31C226.274 364.644 245.523 283.236 246.34 279.75L247.444 280.009C247.245 280.863 227.41 364.746 228.194 383.254L227.068 383.31Z" fill="#598DC7"/>
<path d="M394.288 541.821C389.284 543.145 384.203 543.648 379.043 543.329C373.883 543.01 368.898 541.885 364.089 539.954L347.919 533.556L289.419 510.382C288.766 510.572 288.1 510.681 287.422 510.708C285.687 510.769 284.025 510.443 282.436 509.732C280.847 509.02 279.489 507.992 278.36 506.649C276.574 504.647 275.544 502.301 275.269 499.61C275.269 499.228 275.203 498.834 275.192 498.486C275.027 489.996 275.965 469.25 288.216 457.702L220.015 443.816L211.428 447.841L138.58 450.675C138.58 450.675 129.75 450.259 129.75 462.931C129.75 462.931 125.732 502.162 124.529 512.788C124.529 512.788 127.344 513.204 127.344 520.153C127.344 520.153 127.741 527.912 120.125 529.542C120.125 529.542 94.1868 533.376 68.5134 529.913C67.7078 529.802 66.9872 529.489 66.3517 528.972C65.7161 528.456 65.2557 527.81 64.9703 527.035C63.5244 522.931 61.3169 515.071 66.35 514.475L62.3434 441.319C62.3434 441.319 59.9372 405.754 96.8358 400.446L211.02 380.139L337.146 397.995L377.665 403.302C377.665 403.302 394.111 442.545 412.168 493.257C412.168 493.223 429.663 532.252 394.288 541.821Z" fill="#598DC7"/>
<path d="M288.205 457.668L233.238 447.043L211.417 447.886L220.004 443.771L288.205 457.668Z" fill="#598DC7"/>
<g opacity="0.2">
<mask id="mask0_38_33" style="mask-type:luminance" maskUnits="userSpaceOnUse" x="285" y="476" width="64" height="59">
<path d="M285.94 476.828H348.622V534.952H285.94V476.828Z" fill="white"/>
</mask>
<g mask="url(#mask0_38_33)">
<path d="M347.974 533.544L289.475 510.37C288.822 510.56 288.156 510.669 287.477 510.696C287.157 507.323 285.391 484.835 294.287 477.683C294.177 478.043 288.349 497.349 296.296 503.421L347.974 533.544Z" fill="black"/>
</g>
</g>
<g opacity="0.2">
<mask id="mask1_38_33" style="mask-type:luminance" maskUnits="userSpaceOnUse" x="85" y="408" width="306" height="110">
<path d="M85.0343 408.059H390.41V517.761H85.0343V408.059Z" fill="white"/>
</mask>
<g mask="url(#mask1_38_33)">
<path d="M388.901 497.71C379.265 471.15 362.411 468.294 362.411 468.294L307.852 458.894C307.444 454.801 302.234 452.35 302.234 452.35C296.616 448.673 288.194 457.657 288.194 457.657L233.227 447.031L138.58 450.72C138.58 450.72 129.75 450.304 129.75 462.976C129.75 462.976 125.732 502.207 124.529 512.833C112.101 517.331 85.6217 516.926 85.6217 516.926C121.726 511.203 116.527 471.949 116.527 471.949C115.732 447.425 120.147 442.522 120.147 442.522C129.75 419.652 219.154 409.442 219.154 409.442C227.984 406.574 234.806 422.519 234.806 422.519C238.006 427.826 253.658 430.277 253.658 430.277L330.281 449.078L376.02 463.381C394.111 470.746 388.901 497.71 388.901 497.71Z" fill="black"/>
</g>
</g>
<path d="M96.5157 654.32C92.2331 659.728 79.0984 673.176 58.3809 666.565C57.7369 663.8 58.0312 661.142 59.2639 658.593C60.6215 655.782 63.1381 652.498 67.6304 648.979C69.4484 647.554 71.1519 645.998 72.7408 644.313C72.9932 644.043 73.3022 643.912 73.6679 643.919L75.9748 644.032L79.1867 644.436C84.9305 644.192 90.0483 645.897 94.54 649.552L96.0632 650.677C96.6341 651.108 96.9641 651.682 97.0533 652.4C97.1425 653.118 96.9633 653.758 96.5157 654.32Z" fill="white"/>
<path d="M69.4295 668.937C65.5997 668.909 61.8616 668.299 58.2153 667.105L57.9173 667.015L57.8401 666.7C57.1682 663.802 57.4773 661.017 58.7672 658.345C60.8713 654.41 63.7117 651.138 67.2882 648.529C69.087 647.122 70.772 645.585 72.3434 643.919C72.7127 643.523 73.1653 643.336 73.7011 643.357L76.0079 643.47L79.253 643.874C85.0976 643.645 90.3037 645.392 94.8711 649.114L96.3833 650.238C97.0836 650.757 97.4847 651.454 97.5864 652.33C97.7006 653.199 97.4873 653.975 96.9462 654.657C93.1382 659.47 83.8225 668.937 69.4295 668.937ZM58.8445 666.126C78.8335 672.333 91.5378 659.706 96.0853 653.96C96.4295 653.525 96.5657 653.03 96.4937 652.476C96.4216 651.926 96.1677 651.483 95.7321 651.149L94.2089 650.025C89.8199 646.456 84.8198 644.788 79.2088 645.021L75.8975 644.605L73.69 644.504C73.4901 644.5 73.3209 644.571 73.1823 644.718C71.5732 646.424 69.8476 647.998 68.0057 649.44C64.567 651.947 61.8297 655.087 59.7937 658.863C58.6698 661.174 58.3534 663.596 58.8445 666.126Z" fill="#598DC7"/>
<path d="M275.181 498.439C275.181 498.833 275.181 499.227 275.258 499.564L221.605 475.603L206.362 450.258L211.428 447.841L220.015 443.726L288.216 457.612C275.954 469.205 275.015 489.95 275.181 498.439Z" fill="white"/>
<path d="M275.909 500.508L221.229 476.086L221.141 475.94L205.567 450.079L219.916 443.186L289.364 457.342L288.57 458.084C276.55 469.441 275.567 490.085 275.733 498.44C275.733 498.822 275.733 499.193 275.81 499.564L275.909 500.508ZM221.991 475.198L274.64 498.721C274.646 498.631 274.646 498.541 274.64 498.451C274.475 490.13 275.38 469.812 287.068 457.972L220.07 444.355L207.156 450.551L221.991 475.198Z" fill="#598DC7"/>
<path d="M235.622 443.096C235.632 443.633 235.527 444.146 235.304 444.633C235.082 445.12 234.766 445.533 234.356 445.872C233.946 446.21 233.484 446.44 232.97 446.56C232.456 446.681 231.942 446.681 231.428 446.559C217.741 443.49 214.783 454.43 214.783 454.43C233.238 463.426 223.062 476.357 223.062 476.357C216.903 488.905 197.134 467.091 197.134 467.091C190.412 459.951 178.006 459.996 171.13 460.671C169.543 460.826 167.98 461.111 166.439 461.525C165.512 461.784 164.584 462.076 163.679 462.425C147.233 468.744 141.991 462.425 141.781 462.2C126.538 442.59 159.838 430.323 159.838 430.323L217.344 413.366C217.81 413.228 218.283 413.185 218.765 413.236C219.247 413.287 219.702 413.428 220.13 413.66C220.558 413.892 220.927 414.198 221.238 414.577C221.548 414.956 221.777 415.381 221.925 415.851L224.022 422.598C225.633 428.321 232.852 436.9 232.852 436.9C234.85 439.543 235.556 441.589 235.622 443.096Z" fill="#598DC7"/>
<path d="M166.439 461.491C165.512 461.75 164.585 462.042 163.679 462.391C147.233 468.71 141.991 462.391 141.781 462.166C141.781 462.166 144.993 440.915 171.075 436.417C171.064 436.406 178.216 446.885 166.439 461.491Z" fill="white"/>
<path d="M150.81 465.742C144.044 465.742 141.505 462.706 141.35 462.526L141.13 462.323L141.229 462.076C141.229 461.851 144.805 440.364 170.964 435.855H171.317L171.516 436.147C171.582 436.26 178.779 447.133 166.869 461.907L166.759 462.054H166.582C165.665 462.295 164.764 462.588 163.878 462.931C159.688 464.667 155.332 465.605 150.81 465.742ZM142.366 461.986C143.47 463.11 148.988 467.417 163.492 461.862C164.357 461.528 165.236 461.24 166.13 460.997C176.395 448.156 171.836 438.812 170.788 437.024C147.3 441.252 142.851 459.58 142.366 461.986Z" fill="#598DC7"/>
<path d="M320.7 198.555L323.117 216.208C323.381 218.084 324.356 219.422 326.042 220.222L346.771 230.05C346.771 230.05 335.943 252.538 305.854 250.492C305.854 250.492 282.19 252.122 282.587 228.824L320.7 198.555Z" fill="white"/>
<path d="M309.662 251.144C308.426 251.144 307.157 251.144 305.854 251.02C305.468 251.02 294.817 251.695 287.841 244.937C283.89 241.103 281.947 235.672 282.068 228.79V228.577L321.141 197.565L323.702 216.152C323.925 217.832 324.794 219.024 326.307 219.728L347.554 229.847L347.301 230.353C347.19 230.488 336.881 251.144 309.662 251.144ZM305.821 249.941C332.742 251.773 344.166 233.614 346.009 230.32L325.799 220.706C323.916 219.808 322.842 218.309 322.576 216.208L320.281 199.544L283.172 229.071C283.106 235.503 284.938 240.563 288.603 244.116C295.192 250.536 305.711 249.941 305.821 249.941Z" fill="#598DC7"/>
<path d="M282.587 228.79L320.7 198.555C320.7 198.555 323.051 227.374 295.115 231.927C294.302 232.048 293.541 232.318 292.83 232.737C291.764 233.345 290.912 234.179 290.273 235.24C289.634 236.301 289.291 237.453 289.243 238.696C289.211 240.334 289.62 241.849 290.468 243.241C291.316 244.633 292.468 245.678 293.923 246.376C296.958 247.894 302.146 249.255 310.601 248.265C320.18 247.082 328.948 243.709 336.903 238.145C340.442 235.746 343.731 233.032 346.771 230.005C346.771 230.005 335.733 249.626 314.762 250.244C314.762 250.255 281.781 256.181 282.587 228.79Z" fill="#598DC7"/>
<path d="M265.386 143.862L272.097 141.308C273.822 140.652 275.594 140.173 277.411 139.872C279.229 139.572 281.058 139.454 282.898 139.52C284.739 139.586 286.555 139.835 288.348 140.265C290.14 140.696 291.874 141.301 293.549 142.079C295.225 142.858 296.81 143.795 298.304 144.892C299.798 145.989 301.173 147.223 302.428 148.596C303.684 149.968 304.796 151.452 305.764 153.048C306.733 154.644 307.539 156.32 308.184 158.078L319.92 190.089C320.564 191.847 321.034 193.651 321.329 195.503C321.625 197.355 321.74 199.218 321.675 201.093C321.61 202.968 321.366 204.818 320.944 206.644C320.521 208.47 319.927 210.237 319.163 211.944C318.399 213.65 317.479 215.265 316.402 216.787C315.326 218.309 314.114 219.71 312.766 220.989C311.419 222.268 309.962 223.401 308.396 224.387C306.83 225.374 305.184 226.195 303.459 226.852L296.748 229.405C295.023 230.061 293.252 230.54 291.434 230.841C289.616 231.142 287.787 231.259 285.947 231.193C284.106 231.127 282.29 230.879 280.498 230.448C278.705 230.017 276.971 229.413 275.296 228.634C273.62 227.856 272.035 226.918 270.541 225.821C269.047 224.725 267.672 223.49 266.417 222.118C265.161 220.745 264.049 219.261 263.081 217.666C262.112 216.07 261.306 214.393 260.662 212.636L248.925 180.624C248.281 178.867 247.811 177.062 247.516 175.21C247.221 173.359 247.105 171.495 247.17 169.62C247.235 167.746 247.479 165.895 247.902 164.069C248.324 162.243 248.918 160.477 249.682 158.77C250.446 157.063 251.367 155.449 252.443 153.926C253.52 152.404 254.731 151.004 256.079 149.725C257.426 148.446 258.883 147.313 260.449 146.326C262.015 145.34 263.661 144.518 265.386 143.862Z" fill="white"/>
<path d="M286.936 231.793C284.023 231.785 281.177 231.335 278.398 230.444C275.619 229.553 273.034 228.261 270.641 226.568C268.249 224.875 266.158 222.857 264.368 220.515C262.579 218.174 261.172 215.613 260.148 212.835L248.415 180.823C247.764 179.03 247.291 177.19 246.995 175.302C246.699 173.415 246.585 171.516 246.655 169.606C246.724 167.696 246.975 165.811 247.407 163.951C247.84 162.091 248.445 160.292 249.224 158.553C250.003 156.814 250.94 155.169 252.035 153.617C253.131 152.066 254.364 150.637 255.734 149.332C257.105 148.026 258.587 146.869 260.18 145.86C261.773 144.851 263.448 144.009 265.203 143.334L271.903 140.782C273.663 140.112 275.47 139.624 277.324 139.317C279.178 139.01 281.043 138.89 282.92 138.957C284.798 139.025 286.651 139.278 288.479 139.717C290.307 140.156 292.076 140.773 293.785 141.567C295.494 142.361 297.11 143.317 298.635 144.436C300.159 145.554 301.561 146.813 302.842 148.213C304.123 149.613 305.257 151.127 306.245 152.754C307.233 154.382 308.056 156.092 308.713 157.884L320.446 189.885C321.103 191.678 321.583 193.519 321.884 195.408C322.185 197.296 322.303 199.197 322.237 201.109C322.171 203.022 321.922 204.909 321.491 206.772C321.06 208.634 320.455 210.436 319.675 212.177C318.896 213.918 317.957 215.565 316.859 217.118C315.761 218.671 314.525 220.099 313.151 221.404C311.777 222.709 310.291 223.864 308.694 224.871C307.096 225.877 305.418 226.716 303.658 227.385L296.947 229.938C293.72 231.169 290.382 231.787 286.936 231.793ZM281.881 140.062C278.578 140.065 275.381 140.657 272.289 141.839L265.589 144.391C263.899 145.036 262.287 145.842 260.752 146.81C259.218 147.778 257.791 148.889 256.471 150.143C255.151 151.397 253.963 152.77 252.909 154.262C251.854 155.754 250.952 157.337 250.203 159.009C249.454 160.682 248.872 162.413 248.457 164.203C248.043 165.992 247.803 167.806 247.739 169.643C247.675 171.481 247.786 173.307 248.075 175.122C248.363 176.937 248.822 178.706 249.452 180.429L261.185 212.442C261.817 214.164 262.608 215.808 263.557 217.372C264.506 218.936 265.597 220.391 266.827 221.737C268.058 223.082 269.406 224.292 270.87 225.367C272.335 226.442 273.889 227.361 275.531 228.125C277.174 228.888 278.873 229.481 280.63 229.903C282.387 230.325 284.168 230.568 285.972 230.633C287.776 230.698 289.569 230.583 291.351 230.288C293.133 229.993 294.87 229.524 296.561 228.881L303.272 226.328C304.963 225.685 306.577 224.879 308.113 223.912C309.649 222.945 311.078 221.834 312.399 220.58C313.72 219.325 314.909 217.952 315.964 216.459C317.02 214.967 317.922 213.383 318.671 211.709C319.421 210.036 320.002 208.303 320.417 206.513C320.831 204.722 321.07 202.907 321.133 201.069C321.196 199.23 321.083 197.403 320.792 195.587C320.502 193.772 320.041 192.002 319.409 190.279L307.676 158.278C306.689 155.604 305.334 153.142 303.61 150.889C301.886 148.637 299.872 146.697 297.568 145.07C295.264 143.443 292.774 142.202 290.099 141.348C287.424 140.494 284.684 140.065 281.881 140.062Z" fill="#598DC7"/>
<path d="M326.362 220.875L326.629 219.784L326.673 219.795L326.362 220.875Z" fill="#598DC7"/>
<path d="M326.473 220.908L326.351 220.875L326.684 219.795L326.795 219.84L326.473 220.908Z" fill="#598DC7"/>
<path d="M326.561 220.942V220.886L326.55 220.931L326.628 220.369L326.794 219.84H326.816L326.772 220.043L326.849 219.852L326.561 220.942Z" fill="#598DC7"/>
<path d="M325.882 220.745L326.208 219.671L326.546 219.777L326.22 220.852L325.882 220.745Z" fill="#598DC7"/>
<path d="M327.113 160.549C327.113 160.549 309.872 102.506 263.735 127.435C260.147 129.215 257.032 131.627 254.388 134.673C251.745 137.719 249.776 141.164 248.481 145.01C248.481 145.01 236.45 143.379 239.265 163.81C240.279 175.381 240.555 186.97 240.093 198.577C239.808 204.301 239.01 209.95 237.697 215.523C233.713 232.625 224.64 278.603 241.263 281.92C241.263 281.92 257.311 284.383 259.32 271.294C259.32 271.294 244.077 278.243 243.669 259.859C243.669 259.859 248.89 227.981 250.49 198.96C251.09 187.612 251.112 176.262 250.556 164.912C250.333 161.717 251.113 158.801 252.896 156.164C254.596 153.713 256.815 152.116 258.514 156.456C258.514 156.456 269.751 194.462 296.627 176.887C296.627 176.887 299.64 175.167 303.702 173.008C306.457 177.18 308.245 181.745 309.066 186.703C309.066 186.703 311.539 183.712 311.66 175.313C311.69 173.312 312.268 171.492 313.392 169.852C314.517 168.212 315.997 167.034 317.83 166.317H317.885L319.806 189.593L320.7 198.589L323.117 216.208C323.117 216.208 323.349 219.379 326.042 220.223C326.042 220.189 338.36 189.155 327.113 160.549Z" fill="white"/>
<path d="M244.11 282.651C243.132 282.654 242.157 282.598 241.185 282.482C238.387 281.901 236.256 280.361 234.795 277.861C226.759 265.144 233.768 229.938 237.157 215.399C238.464 209.852 239.259 204.23 239.541 198.532C239.993 186.951 239.717 175.389 238.713 163.844C237.609 155.838 238.625 150.159 241.715 146.977C243.476 145.178 245.602 144.319 248.095 144.402C252.256 131.944 263.404 126.951 263.547 126.895C276.241 120.036 287.996 118.799 298.448 123.24C318.768 131.854 327.378 159.357 327.676 160.347C338.846 188.829 326.705 220.076 326.572 220.391L326.384 220.864L325.899 220.717C322.885 219.762 322.587 216.343 322.587 216.22L320.17 198.645L319.287 189.649L317.422 167.161C315.854 167.912 314.601 169.03 313.665 170.515C312.729 172.001 312.252 173.626 312.234 175.392C312.113 183.892 309.618 186.996 309.508 187.131L308.768 188.03L308.548 186.906C307.75 182.205 306.083 177.85 303.548 173.84C299.762 175.853 296.925 177.472 296.925 177.483C289.773 182.161 283.018 183.364 276.881 181.059C263.89 176.167 258.238 157.513 258.007 156.715C257.455 155.309 256.792 154.466 256.119 154.41C255.446 154.353 254.408 155.096 253.371 156.591C251.669 159.123 250.933 161.919 251.163 164.979C251.721 176.352 251.699 187.724 251.097 199.095C249.508 227.812 244.32 259.735 244.276 260.05C244.397 265.413 245.865 269.045 248.625 270.878C252.929 273.656 259.088 270.878 259.143 270.878L260.071 270.451L259.916 271.474C258.338 281.335 248.956 282.651 244.11 282.651ZM247.852 145.549C245.744 145.537 243.941 146.287 242.444 147.798C239.618 150.71 238.713 156.074 239.761 163.72C240.777 175.321 241.057 186.94 240.6 198.577C240.311 204.336 239.506 210.018 238.183 215.624C234.872 230.028 227.874 264.863 235.678 277.22C236.967 279.439 238.85 280.811 241.329 281.335C241.925 281.437 256.031 283.438 258.547 272.149C256.528 272.868 251.715 274.128 247.94 271.688C244.839 269.698 243.205 265.706 243.073 259.836C243.139 259.409 248.316 227.554 249.894 198.892C250.489 187.567 250.511 176.24 249.96 164.912C249.733 161.587 250.546 158.551 252.399 155.804C253.724 153.904 255.004 153.004 256.185 153.162C257.366 153.319 258.227 154.286 258.978 156.209C259.055 156.445 264.728 175.178 277.19 179.822C282.996 182.003 289.42 180.834 296.285 176.336C296.34 176.336 299.386 174.571 303.404 172.434L303.835 172.209L304.111 172.614C306.64 176.419 308.358 180.572 309.265 185.073C310.553 181.924 311.153 178.644 311.064 175.234C311.084 173.111 311.69 171.178 312.88 169.436C314.071 167.693 315.64 166.444 317.587 165.688L318.272 165.418L318.393 166.137L320.314 189.402L321.208 198.397L323.625 215.995C323.732 217.484 324.417 218.608 325.678 219.368C327.19 215.196 336.793 186.76 326.561 160.661C326.473 160.38 318.051 132.776 297.963 124.252C287.819 119.946 276.384 121.171 263.956 127.896C263.801 127.963 252.863 132.877 248.978 145.144L248.834 145.583H248.382C248.382 145.583 248.216 145.549 247.852 145.549Z" fill="#598DC7"/>
<path d="M326.318 220.864L326.374 220.29L326.528 219.75L326.65 219.795L326.318 220.864Z" fill="#598DC7"/>
<path d="M326.914 221.055L326.992 220.481L327.147 219.942L327.214 219.964L327.191 220.054L327.225 219.975L326.914 221.055Z" fill="#598DC7"/>
<path d="M327.047 221.088H326.903L327.236 219.964H327.369L327.047 221.088ZM327.236 219.964L327.069 220.481L327.18 220.256L327.236 219.964Z" fill="#598DC7"/>
<path d="M327.324 221.19L326.991 221.088L327.324 219.964L327.623 220.065L327.8 220.706L327.324 221.19Z" fill="#598DC7"/>
<path d="M326.694 220.976L326.539 220.931L326.861 219.863L326.994 219.897L326.694 220.976Z" fill="#598DC7"/>
<path d="M326.793 221.01L327.08 219.93L327.18 219.964L326.793 221.01Z" fill="#598DC7"/>
<path d="M326.793 221.01H326.693L327.015 219.885H327.137L326.793 221.01ZM327.026 219.885L326.86 220.425L326.937 220.256L327.026 219.885Z" fill="#598DC7"/>
<path d="M325.512 178.113C325.512 179.684 325.319 181.196 324.932 182.648C324.545 184.1 323.994 185.381 323.278 186.493C322.563 187.604 321.738 188.46 320.804 189.062C319.87 189.663 318.897 189.964 317.885 189.964C316.874 189.964 315.901 189.663 314.967 189.062C314.032 188.46 313.207 187.604 312.492 186.493C311.777 185.381 311.226 184.1 310.839 182.648C310.452 181.196 310.258 179.684 310.258 178.113C310.258 176.541 310.452 175.029 310.839 173.577C311.226 172.125 311.777 170.844 312.492 169.732C313.207 168.621 314.032 167.765 314.967 167.163C315.901 166.562 316.874 166.261 317.885 166.261C318.897 166.261 319.87 166.562 320.804 167.163C321.738 167.765 322.563 168.621 323.278 169.732C323.994 170.844 324.545 172.125 324.932 173.577C325.319 175.029 325.512 176.541 325.512 178.113Z" fill="white"/>
<path d="M317.885 190.537C313.382 190.537 309.718 184.915 309.718 178.169C309.718 171.422 313.382 165.8 317.885 165.8C322.389 165.8 326.064 171.422 326.064 178.169C326.064 184.915 322.4 190.537 317.885 190.537ZM317.885 166.824C313.989 166.824 310.821 171.895 310.821 178.068C310.821 184.241 313.989 189.312 317.885 189.312C321.782 189.312 324.961 184.241 324.961 178.068C324.961 171.895 321.804 166.824 317.885 166.824Z" fill="#598DC7"/>
<path d="M346.771 230.016C340.233 253.327 335.689 277.033 333.139 301.137C333.139 301.137 320.303 366.522 320.303 378.374C320.303 378.374 298.228 377.564 301.439 385.323C301.439 385.323 310.27 397.59 304.651 406.99C304.651 406.99 300.645 414.344 312.278 410.667C312.278 410.667 357.201 403.302 377.665 403.302C377.665 403.302 409.354 402.077 404.95 379.194L388.901 295.008C388.901 295.008 386.495 242.689 346.771 230.016Z" fill="white"/>
<path d="M307.013 412.264C305.825 412.393 304.817 412.018 303.989 411.14C302.676 409.498 304.111 406.822 304.166 406.709C309.541 397.714 301.086 385.772 300.998 385.66L300.932 385.548C300.317 384.296 300.398 383.093 301.175 381.938C304.022 377.722 316.859 377.744 319.751 377.8C320.126 364.689 332.08 303.655 332.599 301.024C335.163 276.907 339.714 253.185 346.252 229.859L346.407 229.319L346.936 229.488C386.561 242.126 389.431 294.446 389.453 294.975L405.491 379.082C406.594 384.704 405.59 389.629 402.533 393.565C395.137 403.089 378.393 403.842 377.687 403.865C357.488 403.865 312.808 411.151 312.367 411.218C310.632 411.833 308.848 412.181 307.013 412.264ZM301.936 385.053C302.665 386.087 310.766 397.894 305.137 407.272C304.828 407.845 304.155 409.52 304.85 410.431C305.325 411.027 306.903 411.781 312.124 410.128C312.643 410.038 357.378 402.74 377.676 402.74C377.831 402.74 394.608 401.976 401.683 392.868C404.53 389.202 405.447 384.637 404.42 379.307L388.36 295.11C388.36 294.514 385.524 243.386 347.146 230.736C345.855 235.234 337.003 267.033 333.68 301.193C333.548 301.901 320.855 366.713 320.855 378.374V378.958H320.281C316.009 378.79 304.42 379.15 302.08 382.59C301.571 383.383 301.523 384.204 301.936 385.053Z" fill="#598DC7"/>
<path d="M320.303 378.936C320.017 378.941 319.836 378.802 319.762 378.52C319.669 378.156 319.802 377.927 320.159 377.834L361.683 366.736C362.564 366.503 363.363 366.1 364.08 365.526C364.796 364.953 365.37 364.258 365.802 363.441C366.233 362.623 366.486 361.752 366.561 360.827C366.635 359.902 366.525 359.001 366.23 358.123C361.351 343.573 349.883 308.468 348.636 296.695C348.597 296.325 348.759 296.119 349.122 296.077C349.491 296.037 349.694 296.206 349.729 296.583C350.965 308.243 362.411 343.247 367.268 357.763C367.612 358.788 367.742 359.84 367.655 360.92C367.569 362 367.275 363.017 366.772 363.972C366.27 364.926 365.601 365.739 364.766 366.409C363.93 367.08 362.998 367.552 361.97 367.827L320.435 378.925L320.303 378.936Z" fill="#598DC7"/>
<path d="M345.17 282.077C344.809 282.042 344.64 281.839 344.663 281.47C344.663 281.324 346.02 267.235 356.903 258.195C357.186 257.961 357.444 257.987 357.676 258.273C357.916 258.563 357.89 258.825 357.599 259.06C347.08 267.797 345.777 281.425 345.766 281.549C345.738 281.924 345.539 282.1 345.17 282.077Z" fill="#598DC7"/>
<path d="M366.837 254.293C366.579 254.295 366.405 254.174 366.315 253.928C366.224 253.682 366.277 253.474 366.473 253.303C368.447 251.667 370.706 250.801 373.25 250.706C373.618 250.706 373.802 250.893 373.802 251.268C373.802 251.643 373.618 251.83 373.25 251.83C370.98 251.93 368.96 252.706 367.19 254.158C367.089 254.248 366.971 254.292 366.837 254.293Z" fill="#598DC7"/>
<path d="M214.217 377.323L259.113 383.458C259.88 383.563 260.498 383.928 260.968 384.555C261.438 385.182 261.621 385.886 261.519 386.668L261.425 387.381C261.322 388.163 260.963 388.793 260.347 389.272C259.732 389.75 259.041 389.937 258.273 389.832L213.377 383.697C212.61 383.592 211.991 383.226 211.521 382.6C211.052 381.973 210.868 381.268 210.971 380.487L211.065 379.774C211.168 378.992 211.527 378.362 212.143 377.883C212.758 377.405 213.449 377.218 214.217 377.323Z" fill="white"/>
<path d="M258.658 390.427H258.205L213.304 384.288C212.39 384.166 211.654 383.732 211.097 382.984C210.532 382.234 210.314 381.39 210.446 380.454L210.534 379.734C210.587 379.283 210.724 378.86 210.946 378.465C211.167 378.071 211.455 377.735 211.809 377.459C212.163 377.183 212.556 376.988 212.988 376.873C213.42 376.759 213.856 376.734 214.298 376.8L259.21 382.939C260.126 383.064 260.861 383.502 261.417 384.254C261.979 385.002 262.196 385.841 262.068 386.773L261.98 387.493C261.865 388.337 261.494 389.041 260.866 389.604C260.238 390.167 259.505 390.453 258.669 390.461L258.658 390.427ZM213.845 377.868C213.284 377.863 212.792 378.05 212.371 378.428C211.949 378.806 211.705 379.279 211.638 379.847L211.549 380.566C211.454 381.195 211.596 381.762 211.974 382.269C212.351 382.775 212.85 383.066 213.47 383.141L258.382 389.281C258.996 389.361 259.55 389.209 260.042 388.826C260.535 388.442 260.824 387.938 260.909 387.313L260.998 386.593C261.079 385.965 260.932 385.399 260.556 384.895C260.181 384.389 259.684 384.096 259.066 384.018L214.165 377.879L213.845 377.868Z" fill="#598DC7"/>
<path d="M301.439 385.323C301.439 385.323 293.415 386.964 288.603 383.276C288.603 383.276 287.002 380.015 273.36 379.599L246.87 377.969C246.87 377.969 247.675 382.467 253.294 386.143L220.976 387.268C220.639 387.278 220.327 387.371 220.038 387.546C219.749 387.722 219.52 387.958 219.351 388.254C219.183 388.551 219.096 388.87 219.09 389.213C219.085 389.556 219.161 389.878 219.32 390.18C220.49 392.316 223.801 395.262 232.83 397.567L257.366 404.977C258.126 405.211 258.902 405.342 259.695 405.371L304.64 406.968C304.64 406.968 310.667 399.625 301.439 385.323Z" fill="white"/>
<path d="M304.905 407.552H304.629L259.684 405.956C258.846 405.925 258.026 405.786 257.223 405.54L232.686 398.13C223.426 395.769 220.048 392.665 218.845 390.473C218.395 389.659 218.395 388.846 218.845 388.033C219.307 387.193 220.009 386.758 220.953 386.728L251.627 385.604C247.101 382.062 246.362 378.216 246.329 378.037L246.207 377.328L273.382 379.003C285.876 379.386 288.525 382.141 289.011 382.86C293.581 386.233 301.241 384.76 301.318 384.738L301.693 384.671L301.892 384.985C311.241 399.468 305.325 407.001 305.06 407.316L304.905 407.552ZM247.631 378.576C248.831 381.632 250.821 383.997 253.602 385.671L255.082 386.638L220.997 387.853C220.47 387.871 220.076 388.115 219.816 388.583C219.567 389.033 219.567 389.483 219.816 389.933C220.92 391.923 224.088 394.768 232.984 397.039L257.543 404.471C258.263 404.689 258.999 404.809 259.75 404.831L304.408 406.417C305.236 405.135 308.967 398.175 301.208 385.941C299.541 386.222 292.72 387.066 288.305 383.692L288.205 383.614L288.139 383.501C288.139 383.501 286.263 380.521 273.371 380.128L247.631 378.576Z" fill="#598DC7"/>
<path d="M437.279 22.3229H715.415C716.328 22.3229 717.232 22.4136 718.128 22.5951C719.024 22.7766 719.893 23.0453 720.737 23.4013C721.581 23.7573 722.382 24.1937 723.141 24.7106C723.901 25.2274 724.603 25.8147 725.249 26.4725C725.894 27.1303 726.471 27.846 726.978 28.6195C727.486 29.393 727.914 30.2094 728.264 31.0689C728.613 31.9284 728.877 32.8143 729.055 33.7267C729.233 34.6391 729.322 35.5604 729.322 36.4907V244.701C729.322 245.632 729.233 246.553 729.055 247.465C728.877 248.378 728.613 249.264 728.264 250.123C727.914 250.983 727.486 251.799 726.978 252.573C726.471 253.346 725.894 254.062 725.249 254.72C724.603 255.377 723.901 255.965 723.141 256.482C722.382 256.998 721.581 257.435 720.737 257.791C719.893 258.147 719.024 258.416 718.128 258.597C717.232 258.779 716.328 258.869 715.415 258.869H437.279C436.366 258.869 435.461 258.779 434.566 258.597C433.67 258.416 432.8 258.147 431.957 257.791C431.113 257.435 430.312 256.998 429.552 256.482C428.793 255.965 428.091 255.377 427.445 254.72C426.799 254.062 426.223 253.346 425.715 252.573C425.208 251.799 424.78 250.983 424.43 250.123C424.081 249.264 423.817 248.378 423.639 247.465C423.461 246.553 423.372 245.632 423.372 244.701V36.4907C423.372 35.5604 423.461 34.6391 423.639 33.7267C423.817 32.8143 424.081 31.9284 424.43 31.0689C424.78 30.2094 425.208 29.393 425.715 28.6195C426.223 27.846 426.799 27.1303 427.445 26.4725C428.091 25.8147 428.793 25.2274 429.552 24.7106C430.312 24.1937 431.113 23.7573 431.957 23.4013C432.8 23.0453 433.67 22.7766 434.566 22.5951C435.461 22.4136 436.366 22.3229 437.279 22.3229Z" fill="white"/>
<path d="M715.426 259.432H437.279C436.329 259.431 435.389 259.336 434.458 259.147C433.527 258.958 432.623 258.678 431.746 258.308C430.869 257.937 430.035 257.483 429.246 256.946C428.456 256.409 427.726 255.798 427.054 255.115C426.382 254.431 425.783 253.687 425.254 252.883C424.726 252.079 424.28 251.231 423.916 250.338C423.552 249.444 423.277 248.523 423.09 247.575C422.904 246.627 422.81 245.669 422.809 244.702V36.4908C422.81 35.5235 422.904 34.5657 423.09 33.6173C423.277 32.6689 423.552 31.748 423.916 30.8547C424.28 29.9615 424.726 29.1129 425.254 28.309C425.783 27.5052 426.382 26.7614 427.054 26.0777C427.726 25.394 428.456 24.7835 429.246 24.2462C430.035 23.7089 430.869 23.2551 431.746 22.8848C432.623 22.5145 433.527 22.2347 434.458 22.0456C435.389 21.8564 436.329 21.7615 437.279 21.7607H715.426C716.375 21.7622 717.315 21.8578 718.245 22.0475C719.176 22.2372 720.079 22.5174 720.956 22.888C721.832 23.2587 722.665 23.7127 723.454 24.2501C724.243 24.7875 724.973 25.398 725.644 26.0817C726.315 26.7653 726.914 27.5089 727.442 28.3125C727.969 29.1162 728.415 29.9644 728.779 30.8573C729.142 31.7502 729.417 32.6707 729.604 33.6187C729.79 34.5666 729.884 35.524 729.885 36.4908V244.702C729.884 245.668 729.79 246.626 729.604 247.574C729.417 248.522 729.142 249.442 728.779 250.335C728.415 251.228 727.969 252.076 727.442 252.88C726.914 253.683 726.315 254.427 725.644 255.111C724.973 255.794 724.243 256.405 723.454 256.942C722.665 257.48 721.832 257.934 720.956 258.304C720.079 258.675 719.176 258.955 718.245 259.145C717.315 259.335 716.375 259.43 715.426 259.432ZM437.279 22.8852C436.402 22.8859 435.533 22.9737 434.673 23.1484C433.813 23.3231 432.978 23.5816 432.168 23.9236C431.358 24.2657 430.588 24.6849 429.859 25.1811C429.13 25.6774 428.455 26.2413 427.834 26.8728C427.214 27.5043 426.66 28.1912 426.172 28.9337C425.684 29.6762 425.272 30.46 424.936 31.285C424.599 32.1101 424.345 32.9606 424.173 33.8366C424.001 34.7127 423.914 35.5974 423.912 36.4908V244.702C423.913 245.595 424.001 246.48 424.173 247.356C424.345 248.232 424.599 249.082 424.936 249.907C425.272 250.732 425.684 251.516 426.172 252.259C426.66 253.001 427.214 253.688 427.834 254.32C428.455 254.951 429.13 255.515 429.859 256.011C430.588 256.508 431.358 256.927 432.168 257.269C432.978 257.611 433.813 257.869 434.673 258.044C435.533 258.219 436.402 258.306 437.279 258.307H715.426C716.302 258.306 717.17 258.217 718.03 258.042C718.889 257.867 719.724 257.608 720.533 257.265C721.343 256.923 722.112 256.504 722.84 256.007C723.569 255.511 724.243 254.947 724.863 254.316C725.483 253.684 726.036 252.997 726.524 252.255C727.011 251.513 727.423 250.729 727.759 249.905C728.095 249.08 728.349 248.23 728.521 247.354C728.693 246.479 728.78 245.594 728.781 244.702V36.4908C728.78 35.5978 728.693 34.7136 728.521 33.838C728.349 32.9625 728.095 32.1123 727.759 31.2876C727.423 30.4629 727.011 29.6795 726.524 28.9372C726.036 28.195 725.483 27.5082 724.863 26.8767C724.243 26.2453 723.569 25.6814 722.841 25.185C722.112 24.6886 721.343 24.2692 720.533 23.9268C719.724 23.5845 718.889 23.3256 718.03 23.1503C717.17 22.975 716.302 22.8866 715.426 22.8852L437.279 22.8852Z" fill="#598DC7"/>
<path d="M440.678 41.6405C447.996 41.6405 448.018 30.0479 440.678 30.0479C433.338 30.0479 433.338 41.6405 440.678 41.6405Z" fill="white"/>
<path d="M440.678 42.2027C439.845 42.2297 439.038 42.0922 438.259 41.79C437.479 41.4879 436.787 41.0446 436.181 40.4599C435.576 39.8753 435.105 39.1945 434.767 38.4175C434.429 37.6405 434.252 36.8272 434.234 35.9777C434.216 35.1282 434.36 34.308 434.664 33.517C434.969 32.726 435.411 32.0253 435.992 31.4149C436.572 30.8044 437.245 30.3313 438.011 29.9955C438.777 29.6598 439.577 29.4872 440.411 29.4779C441.245 29.4686 442.049 29.6233 442.822 29.9419C443.596 30.2605 444.279 30.7185 444.872 31.3159C445.465 31.9133 445.922 32.604 446.244 33.388C446.566 34.172 446.727 34.9888 446.727 35.8385C446.768 36.677 446.644 37.4892 446.354 38.2751C446.064 39.061 445.633 39.7556 445.059 40.3588C444.486 40.9619 443.819 41.4238 443.057 41.7444C442.295 42.065 441.502 42.2178 440.678 42.2027ZM440.678 30.61C439.192 30.555 437.956 31.0947 436.97 32.2292C436.122 33.2817 435.71 34.4886 435.734 35.8498C435.734 36.5207 435.86 37.1662 436.112 37.7861C436.364 38.406 436.723 38.9532 437.188 39.4276C437.654 39.9021 438.191 40.2677 438.8 40.5245C439.408 40.7812 440.042 40.9096 440.701 40.9096C441.359 40.9096 441.993 40.7812 442.601 40.5245C443.21 40.2677 443.747 39.9021 444.213 39.4276C444.678 38.9532 445.037 38.406 445.289 37.7861C445.541 37.1662 445.667 36.5207 445.667 35.8498C445.685 34.4907 445.273 33.2838 444.431 32.2292C443.434 31.0784 442.183 30.5387 440.678 30.61Z" fill="#598DC7"/>
<path d="M459.652 41.6405C466.97 41.6405 466.981 30.0479 459.652 30.0479C452.323 30.0479 452.312 41.6405 459.652 41.6405Z" fill="white"/>
<path d="M459.652 42.2027C458.818 42.2297 458.012 42.0922 457.232 41.79C456.453 41.4879 455.76 41.0446 455.155 40.4599C454.55 39.8753 454.078 39.1945 453.741 38.4175C453.403 37.6405 453.225 36.8272 453.208 35.9777C453.19 35.1282 453.333 34.308 453.638 33.517C453.943 32.726 454.385 32.0253 454.965 31.4149C455.545 30.8044 456.218 30.3313 456.985 29.9955C457.751 29.6598 458.551 29.4872 459.385 29.4779C460.219 29.4686 461.023 29.6233 461.796 29.9419C462.569 30.2605 463.252 30.7185 463.846 31.3159C464.439 31.9133 464.896 32.604 465.218 33.388C465.539 34.172 465.7 34.9888 465.701 35.8385C465.742 36.677 465.618 37.4892 465.328 38.2751C465.038 39.061 464.606 39.7556 464.033 40.3588C463.46 40.9619 462.792 41.4238 462.031 41.7444C461.269 42.065 460.476 42.2178 459.652 42.2027ZM459.652 30.61C458.974 30.5928 458.321 30.7156 457.693 30.9785C457.066 31.2413 456.517 31.6219 456.047 32.1202C455.576 32.6185 455.225 33.1922 454.992 33.8414C454.758 34.4905 454.664 35.16 454.707 35.8498C454.681 37.212 455.093 38.4189 455.943 39.4704C456.427 39.9856 456.99 40.3832 457.633 40.6634C458.276 40.9435 458.947 41.0836 459.647 41.0836C460.346 41.0836 461.017 40.9435 461.66 40.6634C462.303 40.3832 462.866 39.9856 463.35 39.4704C464.205 38.4208 464.621 37.214 464.597 35.8498C464.639 35.1604 464.543 34.4916 464.309 33.8433C464.075 33.1949 463.724 32.6218 463.254 32.1239C462.784 31.626 462.236 31.2454 461.609 30.9819C460.982 30.7185 460.33 30.5945 459.652 30.61Z" fill="#598DC7"/>
<path d="M477.356 41.6405C484.674 41.6405 484.685 30.0479 477.356 30.0479C470.027 30.0479 470.016 41.6405 477.356 41.6405Z" fill="white"/>
<path d="M477.356 42.2027C476.523 42.2297 475.716 42.0922 474.937 41.79C474.157 41.4879 473.465 41.0446 472.859 40.4599C472.254 39.8753 471.783 39.1945 471.445 38.4175C471.107 37.6405 470.93 36.8272 470.912 35.9777C470.894 35.1282 471.038 34.308 471.342 33.517C471.647 32.726 472.089 32.0253 472.669 31.4149C473.25 30.8044 473.923 30.3313 474.689 29.9955C475.455 29.6598 476.255 29.4872 477.089 29.4779C477.923 29.4686 478.727 29.6233 479.5 29.9419C480.274 30.2605 480.957 30.7185 481.55 31.3159C482.143 31.9133 482.6 32.604 482.922 33.388C483.244 34.172 483.405 34.9888 483.405 35.8385C483.446 36.677 483.322 37.4892 483.032 38.2751C482.742 39.061 482.311 39.7556 481.737 40.3588C481.164 40.9619 480.497 41.4238 479.735 41.7444C478.973 42.065 478.18 42.2178 477.356 42.2027ZM477.356 30.61C475.87 30.555 474.634 31.0947 473.648 32.2292C472.8 33.2817 472.388 34.4886 472.412 35.8498C472.412 36.5207 472.538 37.1662 472.79 37.7861C473.042 38.406 473.401 38.9532 473.866 39.4276C474.332 39.9021 474.869 40.2677 475.478 40.5245C476.086 40.7812 476.72 40.9096 477.379 40.9096C478.037 40.9096 478.671 40.7812 479.279 40.5245C479.888 40.2677 480.425 39.9021 480.891 39.4276C481.356 38.9532 481.715 38.406 481.967 37.7861C482.219 37.1662 482.345 36.5207 482.345 35.8498C482.369 34.4859 481.953 33.2791 481.098 32.2292C480.106 31.0768 478.859 30.5371 477.356 30.61Z" fill="#598DC7"/>
<path d="M440.678 70.561H709.3V134.564H440.678V70.561Z" fill="white"/>
<path d="M709.852 135.126H440.127V70.0325H709.852V135.126ZM441.23 134.001H708.748V71.1569H441.23V134.001Z" fill="#598DC7"/>
<path d="M691.474 79.6914L690.271 77.9036C691.235 77.2153 692.092 76.4095 692.843 75.4861L694.476 76.8691C693.601 77.9483 692.6 78.8891 691.474 79.6914Z" fill="#4F66D0"/>
<path d="M465.634 106.52C465.634 107.579 465.436 108.597 465.038 109.575C464.64 110.553 464.074 111.417 463.339 112.165C462.604 112.914 461.757 113.491 460.797 113.896C459.837 114.301 458.837 114.504 457.798 114.504C456.759 114.504 455.759 114.301 454.799 113.896C453.839 113.491 452.991 112.914 452.256 112.165C451.522 111.417 450.955 110.553 450.558 109.575C450.16 108.597 449.961 107.579 449.961 106.52C449.961 105.462 450.16 104.443 450.558 103.465C450.955 102.487 451.521 101.624 452.256 100.875C452.991 100.127 453.839 99.5497 454.799 99.1445C455.759 98.7394 456.759 98.5369 457.798 98.5369C458.837 98.5369 459.837 98.7394 460.797 99.1445C461.757 99.5497 462.604 100.127 463.339 100.875C464.074 101.624 464.64 102.487 465.038 103.465C465.436 104.443 465.634 105.462 465.634 106.52Z" fill="white"/>
<path d="M699.466 63.1396C699.465 64.1982 699.267 65.2166 698.869 66.1946C698.471 67.1727 697.905 68.036 697.17 68.7846C696.435 69.5332 695.588 70.1101 694.628 70.5152C693.668 70.9203 692.668 71.1229 691.629 71.1229C690.59 71.1229 689.59 70.9203 688.63 70.5152C687.67 70.1101 686.822 69.5332 686.087 68.7846C685.353 68.036 684.786 67.1727 684.389 66.1946C683.991 65.2166 683.792 64.1982 683.792 63.1396C683.792 62.0809 683.991 61.0626 684.389 60.0845C684.786 59.1064 685.353 58.2431 686.087 57.4945C686.822 56.7459 687.67 56.1691 688.63 55.7639C689.59 55.3588 690.59 55.1562 691.629 55.1562C692.668 55.1562 693.668 55.3588 694.628 55.7639C695.588 56.1691 696.435 56.7459 697.17 57.4945C697.905 58.2431 698.471 59.1064 698.869 60.0845C699.267 61.0626 699.465 62.0809 699.466 63.1396Z" fill="white"/>
<path d="M567.754 155.804L565.326 157.052L565.039 153.319L562.268 150.845L564.708 149.597L566.132 150.452L571.363 147.753L565.304 143.12L567.743 141.872L575.039 145.898L579.277 143.728C579.784 143.475 580.304 143.439 580.839 143.621C581.374 143.802 581.77 144.149 582.026 144.661C582.28 145.175 582.318 145.704 582.139 146.25C581.959 146.795 581.616 147.195 581.11 147.449L576.904 149.597L575.668 157.951L573.229 159.2L573.174 151.475L567.942 154.151L567.754 155.804Z" fill="#598DC7"/>
<path d="M457.82 224.765C456.44 225.384 454.288 226.598 451.87 228.015L440.259 226.328C439.602 226.232 438.954 226.277 438.316 226.463L435.811 227.183C435.59 227.183 435.59 227.408 435.811 227.498L445.491 231.827C442.179 233.817 439.31 235.638 438.029 236.459C437.543 236.766 437.028 236.829 436.484 236.65L433.956 235.829C433.541 235.679 433.125 235.679 432.709 235.829L431.109 236.493L436.462 241.047C437.061 241.549 437.715 241.643 438.427 241.328C440.987 240.203 447.72 236.999 452.776 234.334C463.912 228.318 465.149 227.284 465.149 226.328C465.149 224.833 460.899 223.304 457.864 224.732L457.82 224.765Z" fill="#598DC7"/>
<path d="M720.624 167.498C719.112 167.071 716.607 166.565 713.759 166.048L705.646 156.872C705.194 156.385 704.664 156.01 704.057 155.748L701.518 154.567C701.331 154.567 701.209 154.567 701.32 154.803C701.43 155.04 704.388 161.066 706.176 164.743C702.269 164.114 698.737 163.619 697.192 163.383C696.638 163.272 696.208 162.976 695.9 162.494L694.366 160.178C694.115 159.798 693.777 159.536 693.351 159.391L691.651 158.896L692.942 165.958C693.1 166.743 693.556 167.249 694.311 167.476C697.125 168.285 704.543 170.365 710.304 171.625C723.053 174.391 724.742 174.391 725.426 173.592C726.11 172.794 724.002 168.443 720.625 167.554L720.624 167.498Z" fill="#598DC7"/>
<path d="M728.98 48.3871H424.133C423.765 48.3871 423.581 48.1997 423.581 47.8249C423.581 47.4501 423.765 47.2627 424.133 47.2627H728.98C729.348 47.2627 729.532 47.4501 729.532 47.8249C729.532 48.1997 729.348 48.3871 728.98 48.3871Z" fill="#598DC7"/>
<path d="M558.24 151.835H441.241C440.873 151.835 440.69 151.647 440.69 151.273C440.69 150.898 440.873 150.71 441.241 150.71H558.24C558.608 150.71 558.792 150.898 558.792 151.273C558.792 151.647 558.608 151.835 558.24 151.835Z" fill="#598DC7"/>
<path d="M558.24 170.86H441.241C440.873 170.86 440.69 170.673 440.69 170.298C440.69 169.923 440.873 169.736 441.241 169.736H558.24C558.608 169.736 558.792 169.923 558.792 170.298C558.792 170.673 558.608 170.86 558.24 170.86Z" fill="#598DC7"/>
<path d="M558.24 189.975H441.241C440.873 189.975 440.69 189.788 440.69 189.413C440.69 189.038 440.873 188.851 441.241 188.851H558.24C558.608 188.851 558.792 189.038 558.792 189.413C558.792 189.788 558.608 189.975 558.24 189.975Z" fill="#598DC7"/>
<path d="M446.032 127.255C445.814 127.252 445.652 127.155 445.546 126.962C445.368 126.632 445.442 126.377 445.767 126.198C446.603 125.773 447.46 125.399 448.339 125.073C448.685 124.924 448.924 125.029 449.056 125.388C449.192 125.737 449.089 125.981 448.747 126.119C447.909 126.446 447.092 126.82 446.297 127.243C446.209 127.268 446.121 127.272 446.032 127.255Z" fill="#598DC7"/>
<path d="M539.498 130.144C538.348 130.146 537.207 130.041 536.076 129.829C535.708 129.761 535.557 129.54 535.624 129.165C535.69 128.791 535.907 128.637 536.275 128.704C538.059 129.034 539.851 129.086 541.65 128.862C542.02 128.814 542.226 128.979 542.268 129.357C542.308 129.721 542.15 129.931 541.794 129.986C541.031 130.084 540.266 130.136 539.498 130.144ZM547.048 128.457C546.814 128.455 546.649 128.347 546.551 128.131C546.39 127.791 546.478 127.544 546.816 127.389C547.647 126.993 548.442 126.532 549.2 126.006C549.941 125.496 550.655 124.949 551.341 124.364C551.624 124.124 551.884 124.149 552.119 124.437C552.355 124.726 552.331 124.99 552.048 125.23C551.319 125.848 550.569 126.422 549.84 126.939C549.036 127.496 548.194 127.983 547.312 128.401C547.232 128.457 547.144 128.49 547.048 128.502L547.048 128.457ZM530.933 127.996C530.842 127.997 530.758 127.974 530.679 127.929C528.97 127.014 527.436 125.86 526.076 124.465C525.817 124.196 525.82 123.929 526.086 123.665C526.352 123.402 526.614 123.406 526.871 123.678C528.146 124.991 529.584 126.078 531.187 126.939C531.517 127.109 531.595 127.36 531.419 127.692C531.317 127.893 531.154 127.994 530.933 127.996ZM476.153 127.996H475.491C475.123 127.988 474.943 127.797 474.95 127.423C474.958 127.048 475.145 126.864 475.513 126.872C477.336 126.927 479.139 126.759 480.921 126.366C481.282 126.291 481.499 126.437 481.573 126.804C481.647 127.166 481.507 127.387 481.153 127.468C479.504 127.811 477.837 127.976 476.153 127.962V127.996ZM470.016 127.119H469.862C468.605 126.746 467.391 126.262 466.219 125.669C465.713 125.41 465.195 125.181 464.663 124.983C464.317 124.855 464.207 124.615 464.332 124.263C464.466 123.919 464.706 123.807 465.049 123.926C465.614 124.139 466.166 124.383 466.705 124.657C467.818 125.228 468.973 125.689 470.171 126.04C470.539 126.092 470.697 126.306 470.645 126.68C470.594 127.055 470.384 127.216 470.016 127.164V127.119ZM486.264 125.657C485.896 125.728 485.677 125.577 485.607 125.202C485.537 124.827 485.686 124.604 486.054 124.533C487.721 123.813 489.365 122.992 491.021 122.104C491.348 121.912 491.598 121.987 491.771 122.329C491.949 122.656 491.875 122.908 491.551 123.082C489.903 123.997 488.214 124.825 486.484 125.567C486.418 125.615 486.344 125.645 486.264 125.657ZM453.824 124.465C453.524 124.465 453.343 124.316 453.283 124.016C453.218 123.654 453.362 123.433 453.714 123.352C455.581 122.953 457.469 122.777 459.376 122.824C459.744 122.832 459.921 123.022 459.906 123.397C459.898 123.765 459.715 123.948 459.354 123.948C457.532 123.899 455.729 124.068 453.946 124.454L453.824 124.465ZM555.602 121.373C555.464 121.374 555.346 121.326 555.248 121.227C554.962 120.988 554.939 120.725 555.182 120.44C555.381 120.215 555.569 119.979 555.767 119.743C556.42 118.293 557.255 116.963 558.273 115.751C558.508 115.454 558.769 115.428 559.057 115.672C559.337 115.909 559.363 116.171 559.134 116.46C558.166 117.609 557.371 118.873 556.75 120.249C556.731 120.304 556.702 120.353 556.661 120.395C556.452 120.665 556.242 120.923 556.021 121.171C555.924 121.293 555.799 121.36 555.646 121.373H555.602ZM522.246 120.901C522.126 120.902 522.02 120.864 521.926 120.789C520.449 119.707 518.871 118.811 517.191 118.101C516.803 117.981 516.687 117.73 516.842 117.349C516.996 116.967 517.253 116.873 517.61 117.067C519.374 117.805 521.03 118.742 522.577 119.878C522.866 120.1 522.907 120.363 522.699 120.665C522.597 120.806 522.461 120.884 522.29 120.901H522.246ZM496.054 120.283C495.772 120.285 495.593 120.148 495.517 119.872C495.441 119.595 495.525 119.383 495.767 119.237C497.383 118.217 499.087 117.381 500.877 116.729C501.228 116.592 501.463 116.704 501.584 117.067C501.709 117.419 501.598 117.659 501.253 117.786C499.533 118.406 497.899 119.208 496.352 120.193C496.275 120.244 496.19 120.274 496.098 120.283L496.054 120.283ZM512.036 116.662H511.959C510.916 116.507 509.867 116.432 508.813 116.437H508.593C507.919 116.437 507.224 116.437 506.54 116.561C506.177 116.592 505.974 116.424 505.933 116.055C505.894 115.678 506.059 115.472 506.429 115.436C507.147 115.358 507.875 115.324 508.582 115.313H508.813C509.923 115.312 511.026 115.39 512.125 115.549C512.493 115.575 512.664 115.776 512.638 116.15C512.612 116.525 512.415 116.699 512.047 116.673L512.036 116.662ZM562.776 112.76C562.511 112.76 562.337 112.632 562.253 112.376C562.169 112.12 562.233 111.91 562.445 111.748C563.97 110.592 565.596 109.61 567.324 108.802C567.676 108.581 567.939 108.661 568.114 109.043C568.289 109.425 568.18 109.682 567.787 109.814C566.132 110.595 564.572 111.54 563.107 112.648C563.01 112.726 562.9 112.763 562.776 112.76ZM572.787 107.959C572.42 108.003 572.215 107.838 572.171 107.464C572.127 107.09 572.288 106.88 572.655 106.835C574.47 106.35 576.309 106.002 578.174 105.789C578.542 105.747 578.747 105.913 578.788 106.289C578.828 106.665 578.664 106.873 578.295 106.913C576.476 107.124 574.68 107.465 572.909 107.937L572.787 107.959ZM600.458 107.869C598.648 107.869 596.761 107.757 594.851 107.565C594.483 107.532 594.315 107.328 594.348 106.953C594.382 106.577 594.582 106.407 594.951 106.441C596.838 106.621 598.692 106.711 600.469 106.733C600.846 106.726 601.026 106.913 601.01 107.296C601.026 107.686 600.842 107.881 600.458 107.88V107.869ZM605.977 107.633C605.674 107.61 605.505 107.445 605.469 107.138C605.431 106.762 605.596 106.56 605.966 106.531C606.548 106.479 607.132 106.411 607.721 106.329C608.991 106.16 610.238 105.946 611.408 105.699C611.774 105.615 611.992 105.761 612.059 106.137C612.142 106.511 611.998 106.732 611.629 106.801C610.425 107.06 609.156 107.273 607.865 107.442L606.066 107.644L605.977 107.633ZM589.321 106.925C587.434 106.733 585.58 106.632 583.803 106.632C583.427 106.632 583.243 106.441 583.251 106.059C583.251 105.684 583.435 105.5 583.803 105.508C585.602 105.508 587.489 105.609 589.41 105.8C589.777 105.82 589.951 106.017 589.933 106.39C589.914 106.764 589.722 106.942 589.355 106.925H589.321ZM616.915 105.305C616.548 105.369 616.332 105.214 616.27 104.839C616.207 104.464 616.36 104.245 616.728 104.181C618.455 103.579 620.118 102.83 621.717 101.932C622.037 101.743 622.29 101.812 622.474 102.139C622.659 102.466 622.59 102.723 622.269 102.91C620.612 103.851 618.887 104.634 617.092 105.26C617.033 105.292 616.971 105.311 616.904 105.317L616.915 105.305ZM626.496 99.6833C626.336 99.6788 626.2 99.6192 626.088 99.5034C625.834 99.2373 625.834 98.9712 626.088 98.7051C627.425 97.4512 628.562 96.0307 629.498 94.4436C629.69 94.1212 629.944 94.0575 630.26 94.2524C630.576 94.4473 630.639 94.7059 630.448 95.0282C629.454 96.7021 628.251 98.2014 626.838 99.5259C626.729 99.638 626.596 99.6942 626.441 99.6946L626.496 99.6833ZM632.5 90.2383C632.407 90.2387 632.318 90.2162 632.236 90.1708C631.92 89.9884 631.847 89.7335 632.015 89.4062C632.903 87.6957 633.947 86.0916 635.15 84.5937C635.382 84.3078 635.639 84.2815 635.922 84.515C636.214 84.7544 636.24 85.0205 636 85.3133C634.844 86.7517 633.84 88.2922 632.986 89.9347C632.89 90.1526 632.724 90.2651 632.49 90.272L632.5 90.2383ZM639.476 81.4791C639.313 81.4757 639.177 81.412 639.068 81.2879C638.815 81.0256 638.815 80.7632 639.068 80.5009C640.479 79.2147 641.98 78.0491 643.571 77.0039C643.887 76.7934 644.141 76.8534 644.333 77.1838C644.531 77.4985 644.476 77.7571 644.167 77.9597C642.61 78.9673 641.138 80.0917 639.752 81.3329C639.672 81.4156 639.577 81.468 639.465 81.4904L639.476 81.4791ZM675.393 80.3547H675.282C673.424 79.9687 671.614 79.4177 669.852 78.7018C669.512 78.5622 669.409 78.3189 669.545 77.9719C669.68 77.6249 669.919 77.5196 670.26 77.6561C671.958 78.3465 673.701 78.8787 675.492 79.2528C675.859 79.2868 676.026 79.4911 675.993 79.8655C675.96 80.2399 675.76 80.4104 675.393 80.3772V80.3547ZM665.072 76.2731C664.991 76.2943 664.911 76.2943 664.83 76.2731C663.205 75.4446 661.501 74.8487 659.719 74.4853C659.353 74.4131 659.204 74.1902 659.274 73.8166C659.344 73.443 659.562 73.2911 659.929 73.3609C661.807 73.7502 663.603 74.3836 665.315 75.2611C665.594 75.3821 665.699 75.5929 665.63 75.8936C665.561 76.1942 665.375 76.3357 665.072 76.3181L665.072 76.2731ZM648.891 75.486C648.635 75.4916 648.462 75.3716 648.373 75.1262C648.237 74.7724 648.344 74.5288 648.693 74.3953C650.474 73.6964 652.313 73.2467 654.211 73.046C654.58 73.0118 654.781 73.1823 654.814 73.5576C654.847 73.9328 654.679 74.1371 654.311 74.1704C652.503 74.3639 650.752 74.7949 649.057 75.4635C648.992 75.4832 648.926 75.4907 648.858 75.486H648.891Z" fill="#598DC7"/>
<path d="M681.022 80.9395C680.654 80.9395 680.47 80.7521 680.47 80.3773C680.47 80.0025 680.654 79.8151 681.022 79.8151C681.85 79.8151 682.666 79.8151 683.45 79.6802H683.715C684.084 79.6341 684.29 79.799 684.334 80.1747C684.379 80.5505 684.216 80.7605 683.847 80.8046H683.571C682.744 80.8833 681.894 80.9283 681.033 80.9395H681.022Z" fill="#598DC7"/>
<path d="M457.82 94.4664C456.32 94.4698 454.877 94.7647 453.492 95.3523C452.107 95.94 450.885 96.7752 449.826 97.858C448.768 98.9408 447.953 100.189 447.381 101.602C446.81 103.015 446.525 104.486 446.528 106.014C446.528 111.085 453.714 122.228 456.628 126.535C456.81 126.874 457.083 127.098 457.447 127.208C457.81 127.317 458.159 127.28 458.493 127.097C458.728 126.961 458.912 126.774 459.045 126.535C461.959 122.228 469.144 111.085 469.144 106.014C469.145 104.486 468.86 103.016 468.287 101.605C467.714 100.193 466.898 98.9462 465.838 97.8653C464.778 96.7844 463.555 95.9515 462.17 95.3665C460.784 94.7815 459.342 94.489 457.842 94.4889L457.82 94.4664ZM457.82 99.8411C458.62 99.8411 459.391 99.9972 460.13 100.309C460.87 100.621 461.523 101.066 462.089 101.643C462.655 102.219 463.091 102.884 463.398 103.638C463.704 104.391 463.857 105.176 463.857 105.992C463.857 106.807 463.704 107.592 463.398 108.345C463.091 109.099 462.655 109.764 462.089 110.341C461.523 110.917 460.87 111.362 460.13 111.674C459.391 111.986 458.62 112.142 457.82 112.142C457.019 112.142 456.249 111.986 455.509 111.674C454.77 111.362 454.117 110.917 453.551 110.341C452.984 109.764 452.548 109.099 452.242 108.345C451.935 107.592 451.782 106.807 451.782 105.992C451.782 105.176 451.935 104.391 452.242 103.638C452.548 102.884 452.984 102.219 453.551 101.643C454.117 101.066 454.77 100.621 455.509 100.309C456.249 99.9972 457.019 99.8411 457.82 99.8411Z" fill="white"/>
<path d="M457.82 127.805C457.632 127.806 457.448 127.78 457.268 127.727C456.777 127.56 456.409 127.246 456.164 126.782C453.129 122.284 445.999 111.198 445.999 105.992C445.965 105.177 446.012 104.367 446.139 103.561C446.266 102.756 446.471 101.972 446.754 101.209C447.037 100.446 447.392 99.7198 447.82 99.0301C448.247 98.3403 448.738 97.7012 449.292 97.1127C449.846 96.5242 450.453 95.9983 451.112 95.5349C451.771 95.0714 452.468 94.6799 453.205 94.3604C453.942 94.0409 454.702 93.7998 455.487 93.6371C456.271 93.4744 457.064 93.3934 457.865 93.3942C458.665 93.3949 459.458 93.4774 460.242 93.6416C461.026 93.8058 461.786 94.0483 462.522 94.3693C463.258 94.6902 463.955 95.083 464.613 95.5476C465.271 96.0123 465.877 96.5394 466.43 97.129C466.984 97.7185 467.473 98.3586 467.899 99.0491C468.325 99.7396 468.679 100.467 468.961 101.23C469.242 101.994 469.446 102.778 469.572 103.584C469.697 104.389 469.743 105.199 469.707 106.014C469.707 111.209 462.577 122.318 459.509 126.849C459.326 127.163 459.08 127.411 458.769 127.592C458.471 127.748 458.155 127.819 457.82 127.805ZM457.82 95.0286C456.394 95.0286 455.022 95.3064 453.704 95.8621C452.386 96.4177 451.223 97.2089 450.214 98.2356C449.205 99.2624 448.427 100.447 447.881 101.788C447.334 103.13 447.06 104.528 447.058 105.98C447.058 111.018 454.718 122.723 457.069 126.22C457.313 126.719 457.681 126.846 458.173 126.602C458.317 126.524 458.428 126.412 458.504 126.265C460.877 122.745 468.537 111.029 468.537 106.025C468.541 104.572 468.27 103.173 467.725 101.829C467.181 100.485 466.404 99.2992 465.396 98.2707C464.387 97.2422 463.224 96.45 461.905 95.894C460.587 95.3381 459.214 95.0608 457.787 95.0624L457.82 95.0286ZM457.82 112.693C456.942 112.693 456.097 112.522 455.285 112.18C454.474 111.837 453.758 111.35 453.137 110.717C452.516 110.084 452.037 109.355 451.701 108.528C451.365 107.702 451.197 106.841 451.197 105.947C451.197 105.052 451.365 104.191 451.701 103.365C452.037 102.538 452.516 101.809 453.137 101.176C453.758 100.544 454.474 100.056 455.285 99.7137C456.097 99.3714 456.942 99.2002 457.82 99.2002C458.698 99.2002 459.543 99.3714 460.354 99.7137C461.166 100.056 461.882 100.544 462.503 101.176C463.124 101.809 463.602 102.538 463.938 103.365C464.274 104.191 464.442 105.052 464.442 105.947C464.442 106.841 464.274 107.702 463.938 108.528C463.602 109.355 463.124 110.084 462.503 110.717C461.882 111.35 461.166 111.837 460.354 112.18C459.543 112.522 458.698 112.693 457.82 112.693ZM457.82 100.403C457.088 100.403 456.384 100.546 455.708 100.831C455.032 101.117 454.435 101.523 453.917 102.05C453.4 102.577 453.001 103.185 452.721 103.874C452.441 104.563 452.301 105.28 452.301 106.025C452.301 106.771 452.441 107.488 452.721 108.177C453.001 108.866 453.4 109.474 453.917 110.001C454.435 110.528 455.032 110.934 455.708 111.219C456.384 111.505 457.088 111.647 457.82 111.647C458.552 111.647 459.256 111.505 459.932 111.219C460.608 110.934 461.205 110.528 461.722 110.001C462.24 109.474 462.638 108.866 462.919 108.177C463.199 107.488 463.339 106.771 463.339 106.025C463.34 105.279 463.201 104.561 462.922 103.87C462.642 103.18 462.244 102.571 461.726 102.043C461.209 101.514 460.611 101.107 459.934 100.821C459.257 100.535 458.553 100.392 457.82 100.392V100.403Z" fill="#598DC7"/>
<path d="M691.651 51.0746C690.151 51.0746 688.707 51.367 687.321 51.9519C685.935 52.5368 684.712 53.3695 683.651 54.4502C682.59 55.5309 681.773 56.7773 681.199 58.1893C680.624 59.6013 680.337 61.0715 680.337 62.5998C680.337 67.6709 687.523 78.8138 690.437 83.1316C690.703 83.6088 691.106 83.8474 691.645 83.8474C692.184 83.8474 692.587 83.6088 692.854 83.1316C695.768 78.8138 702.953 67.6709 702.953 62.5998C702.953 61.0724 702.667 59.6031 702.093 58.1919C701.52 56.7807 700.703 55.5348 699.644 54.4542C698.584 53.3737 697.362 52.5407 695.977 51.9551C694.592 51.3696 693.15 51.0761 691.651 51.0746ZM691.651 56.4605C692.452 56.4605 693.222 56.6167 693.962 56.929C694.702 57.2414 695.355 57.6861 695.921 58.2633C696.488 58.8404 696.924 59.506 697.23 60.2599C697.536 61.0139 697.689 61.7989 697.688 62.6148C697.688 63.4307 697.534 64.2155 697.227 64.9691C696.92 65.7227 696.483 66.3877 695.916 66.9641C695.349 67.5405 694.696 67.9845 693.955 68.2959C693.215 68.6074 692.444 68.7626 691.643 68.7616C690.842 68.7606 690.072 68.6035 689.333 68.2902C688.593 67.9769 687.941 67.5313 687.375 66.9535C686.81 66.3757 686.374 65.7096 686.069 64.9552C685.764 64.2009 685.612 63.4157 685.613 62.5998C685.613 61.7847 685.767 61.0007 686.073 60.2478C686.38 59.4949 686.816 58.8305 687.382 58.2547C687.949 57.6789 688.602 57.2355 689.341 56.9246C690.081 56.6137 690.851 56.459 691.651 56.4605Z" fill="white"/>
<path d="M691.651 84.4247C691.462 84.4225 691.279 84.3923 691.099 84.3348C690.612 84.1697 690.244 83.8586 689.995 83.4015C686.96 78.9038 679.83 67.8059 679.83 62.5999C679.833 60.9979 680.135 59.4572 680.739 57.9777C681.342 56.4982 682.199 55.1921 683.311 54.0594C684.423 52.9266 685.705 52.053 687.158 51.4386C688.61 50.8241 690.122 50.5154 691.695 50.5125C693.267 50.5169 694.778 50.8267 696.229 51.4418C697.68 52.0569 698.961 52.9307 700.071 54.0633C701.182 55.1959 702.039 56.5016 702.641 57.9803C703.244 59.459 703.546 60.9989 703.549 62.5999C703.549 67.7947 696.419 78.9038 693.351 83.4465C693.176 83.7656 692.929 84.0093 692.611 84.1773C692.312 84.3463 691.992 84.4288 691.651 84.4247ZM691.651 51.0747V51.6369C690.224 51.6383 688.852 51.9175 687.534 52.4744C686.216 53.0312 685.053 53.8235 684.044 54.8511C683.036 55.8788 682.258 57.0639 681.711 58.4063C681.165 59.7487 680.891 61.1465 680.889 62.5999C680.889 67.626 688.549 79.3424 690.9 82.8393C691.144 83.3384 691.512 83.4658 692.004 83.2216C692.145 83.145 692.255 83.0363 692.335 82.8955C694.708 79.3649 702.368 67.6485 702.368 62.6561C702.365 61.2042 702.091 59.8077 701.544 58.4668C700.998 57.1258 700.221 55.9418 699.214 54.9146C698.206 53.8874 697.045 53.0948 695.729 52.5368C694.413 51.9787 693.043 51.6975 691.618 51.6931L691.651 51.0747ZM691.651 69.3126C690.773 69.3126 689.928 69.1414 689.116 68.7991C688.305 68.4567 687.589 67.9692 686.968 67.3366C686.347 66.704 685.868 65.9744 685.532 65.1479C685.196 64.3214 685.028 63.4608 685.028 62.5661C685.028 61.6715 685.196 60.8109 685.532 59.9844C685.868 59.1578 686.347 58.4283 686.968 57.7957C687.589 57.1631 688.305 56.6756 689.116 56.3332C689.928 55.9909 690.773 55.8197 691.651 55.8197C692.529 55.8197 693.374 55.9909 694.185 56.3332C694.996 56.6756 695.713 57.1631 696.334 57.7957C696.955 58.4283 697.433 59.1578 697.769 59.9844C698.105 60.8109 698.273 61.6715 698.273 62.5661C698.273 63.4608 698.105 64.3214 697.769 65.1479C697.433 65.9744 696.955 66.704 696.334 67.3366C695.713 67.9692 694.996 68.4567 694.185 68.7991C693.374 69.1414 692.529 69.3126 691.651 69.3126ZM691.651 57.0228C690.919 57.0228 690.215 57.1654 689.539 57.4507C688.863 57.736 688.266 58.1423 687.748 58.6694C687.231 59.1966 686.832 59.8046 686.552 60.4934C686.272 61.1822 686.132 61.8993 686.132 62.6449C686.132 63.3904 686.272 64.1075 686.552 64.7963C686.832 65.4851 687.231 66.0931 687.748 66.6202C688.266 67.1474 688.863 67.5536 689.539 67.8389C690.215 68.1242 690.919 68.2669 691.651 68.2669C692.383 68.2669 693.086 68.1242 693.763 67.8389C694.439 67.5536 695.036 67.1474 695.553 66.6202C696.071 66.0931 696.469 65.4851 696.749 64.7963C697.029 64.1075 697.17 63.3904 697.17 62.6449C697.17 61.8993 697.029 61.1822 696.749 60.4934C696.469 59.8046 696.071 59.1966 695.553 58.6694C695.036 58.1423 694.439 57.736 693.763 57.4507C693.086 57.1654 692.383 57.0228 691.651 57.0228Z" fill="#598DC7"/>
<path d="M539.056 238.055H538.549C537.845 238.028 537.146 237.957 536.451 237.842C536.083 237.778 535.931 237.559 535.993 237.184C536.056 236.809 536.271 236.653 536.639 236.717C538.406 237.026 540.168 236.999 541.926 236.638C542.295 236.562 542.516 236.711 542.59 237.088C542.664 237.464 542.516 237.689 542.147 237.763C541.126 237.963 540.096 238.06 539.056 238.055ZM477.312 236.683C476.944 236.683 476.76 236.496 476.76 236.121C476.76 235.746 476.944 235.559 477.312 235.559C479.108 235.484 480.86 235.158 482.566 234.581C482.915 234.454 483.147 234.571 483.261 234.929C483.386 235.287 483.271 235.527 482.919 235.649C481.126 236.253 479.287 236.597 477.4 236.683H477.312ZM471.793 236.267H471.694C469.85 235.918 468.047 235.415 466.286 234.761C465.94 234.633 465.83 234.393 465.954 234.041C466.08 233.689 466.315 233.576 466.661 233.704C468.365 234.338 470.109 234.825 471.893 235.165C472.261 235.199 472.428 235.403 472.395 235.778C472.362 236.153 472.161 236.324 471.793 236.29L471.793 236.267ZM531.396 235.93C531.293 235.932 531.197 235.906 531.109 235.851C529.592 234.936 528.241 233.811 527.058 232.478L526.749 232.141C526.496 231.867 526.503 231.601 526.771 231.342C527.04 231.084 527.301 231.091 527.555 231.365L527.875 231.713C528.979 232.956 530.245 233.994 531.672 234.828C531.987 235.021 532.053 235.279 531.871 235.604C531.777 235.81 531.619 235.919 531.396 235.93ZM547.114 235.649C546.911 235.653 546.756 235.567 546.65 235.39C546.452 235.076 546.507 234.817 546.816 234.614C548.317 233.609 549.642 232.403 550.789 230.994C551.028 230.709 551.288 230.688 551.567 230.932C551.847 231.176 551.867 231.44 551.628 231.725C550.41 233.217 549.005 234.495 547.412 235.559C547.322 235.622 547.223 235.652 547.114 235.649ZM487.599 233.074C487.412 233.073 487.265 232.995 487.158 232.838C486.949 232.536 486.99 232.273 487.279 232.051C487.665 231.77 488.041 231.477 488.383 231.151C489.441 230.253 490.545 229.417 491.694 228.644C492.006 228.366 492.279 228.402 492.513 228.75C492.746 229.099 492.68 229.371 492.312 229.566C491.208 230.308 490.171 231.129 489.144 232.006C488.747 232.354 488.339 232.669 487.941 232.962C487.841 233.042 487.727 233.079 487.599 233.074ZM461.451 232.467C461.362 232.471 461.277 232.452 461.197 232.411C459.526 231.535 457.926 230.542 456.396 229.431C456.102 229.206 456.065 228.944 456.285 228.644C456.506 228.344 456.764 228.307 457.058 228.531C458.542 229.6 460.091 230.559 461.705 231.41C462.036 231.585 462.113 231.84 461.937 232.174C461.843 232.388 461.681 232.497 461.451 232.501V232.467ZM523.019 228.621C522.899 228.622 522.792 228.585 522.699 228.509C521.233 227.441 519.669 226.553 518.008 225.844C517.661 225.7 517.562 225.452 517.71 225.102C517.854 224.768 518.093 224.667 518.427 224.798C520.17 225.539 521.807 226.472 523.339 227.598C523.643 227.815 523.687 228.077 523.471 228.385C523.369 228.56 523.218 228.65 523.019 228.655V228.621ZM554.288 227.238C554.195 227.237 554.106 227.215 554.023 227.171C553.708 226.988 553.634 226.734 553.803 226.406C553.946 226.148 554.078 225.878 554.222 225.608C554.92 224.146 555.8 222.808 556.86 221.594C557.121 221.336 557.382 221.336 557.644 221.594C557.926 221.837 557.945 222.099 557.699 222.381C556.702 223.521 555.874 224.776 555.215 226.148C555.061 226.462 554.917 226.732 554.774 227.002C554.665 227.19 554.503 227.28 554.288 227.272V227.238ZM496.782 226.89C496.492 226.885 496.315 226.738 496.252 226.449C496.189 226.16 496.289 225.951 496.551 225.822C498.254 225.01 500.016 224.365 501.838 223.888C502.195 223.793 502.419 223.928 502.511 224.292C502.595 224.651 502.463 224.88 502.114 224.978C500.357 225.439 498.657 226.061 497.014 226.845C496.943 226.888 496.865 226.914 496.782 226.923V226.89ZM512.919 224.36H512.831C511.587 224.166 510.336 224.068 509.078 224.067C508.526 224.067 507.974 224.067 507.445 224.067C507.068 224.108 506.873 223.935 506.86 223.55C506.837 223.175 507.01 222.976 507.378 222.954C507.941 222.954 508.482 222.887 509.078 222.954C510.392 222.953 511.698 223.054 512.997 223.258C513.364 223.285 513.535 223.485 513.509 223.859C513.483 224.234 513.287 224.408 512.919 224.382V224.36ZM561.341 218.738C561.149 218.741 560.998 218.662 560.889 218.502C560.68 218.199 560.721 217.937 561.01 217.715C562.539 216.59 564.165 215.638 565.889 214.859C566.22 214.715 566.462 214.809 566.617 215.14C566.776 215.489 566.681 215.737 566.33 215.882C564.681 216.633 563.125 217.547 561.661 218.625C561.564 218.715 561.45 218.76 561.319 218.76L561.341 218.738ZM604.134 215.859C603.78 215.86 603.596 215.68 603.582 215.32C603.567 214.937 603.747 214.742 604.123 214.735C605.938 214.696 607.741 214.523 609.531 214.218C609.891 214.16 610.104 214.314 610.171 214.679C610.236 215.051 610.085 215.268 609.719 215.331C607.873 215.64 606.015 215.816 604.145 215.859H604.134ZM598.615 215.623H598.549C597.329 215.503 596.122 215.301 594.929 215.016L593.074 214.577C592.712 214.502 592.572 214.281 592.655 213.914C592.734 213.555 592.951 213.409 593.306 213.476L595.193 213.925C596.34 214.193 597.499 214.384 598.67 214.499C599.037 214.518 599.211 214.715 599.193 215.089C599.175 215.463 598.982 215.641 598.615 215.623ZM571.319 214.139C570.952 214.183 570.746 214.018 570.703 213.644C570.658 213.27 570.82 213.06 571.187 213.015C573.004 212.57 574.844 212.267 576.706 212.104C577.073 212.071 577.273 212.241 577.306 212.615C577.339 212.99 577.172 213.194 576.805 213.228C574.996 213.387 573.208 213.679 571.441 214.105L571.319 214.139ZM614.962 213.959C614.595 214.018 614.382 213.86 614.323 213.486C614.264 213.113 614.418 212.895 614.785 212.835C616.492 212.242 618.129 211.492 619.697 210.586C620.017 210.398 620.269 210.468 620.453 210.794C620.637 211.12 620.569 211.377 620.249 211.564C618.619 212.518 616.916 213.305 615.138 213.925C615.085 213.946 615.03 213.957 614.973 213.959H614.962ZM587.809 213.622H587.732C585.867 213.363 584.034 213.206 582.29 213.138C581.922 213.13 581.746 212.94 581.761 212.565C581.787 212.21 581.975 212.026 582.324 212.014C584.112 212.081 585.977 212.25 587.842 212.509C588.21 212.531 588.383 212.73 588.361 213.104C588.339 213.479 588.144 213.655 587.776 213.633L587.809 213.622ZM624.454 208.337C624.289 208.338 624.152 208.274 624.046 208.146C623.793 207.883 623.793 207.621 624.046 207.359C625.399 206.135 626.625 204.789 627.721 203.322C627.943 203.032 628.201 202.995 628.494 203.21C628.784 203.438 628.817 203.701 628.593 203.997C627.456 205.522 626.186 206.924 624.785 208.202C624.689 208.282 624.578 208.327 624.454 208.337ZM631.077 199.477C630.987 199.474 630.902 199.452 630.823 199.409C630.502 199.236 630.425 198.985 630.591 198.656L630.889 198.049C631.618 196.549 632.442 195.106 633.361 193.72C633.566 193.405 633.82 193.357 634.123 193.573C634.426 193.78 634.478 194.039 634.278 194.349C633.382 195.69 632.583 197.088 631.882 198.543L631.573 199.173C631.491 199.375 631.344 199.491 631.132 199.522L631.077 199.477ZM637.28 190.234C637.132 190.231 637.003 190.178 636.893 190.076C636.64 189.81 636.64 189.544 636.893 189.278C637.313 188.828 637.754 188.401 638.196 187.974C639.129 187.103 640.108 186.29 641.132 185.534C641.43 185.313 641.687 185.354 641.904 185.658C642.122 185.961 642.081 186.223 641.783 186.445C640.792 187.175 639.846 187.962 638.946 188.806C638.516 189.211 638.096 189.627 637.688 190.065C637.598 190.183 637.48 190.255 637.335 190.279L637.28 190.234ZM683.351 188.525C681.474 188.416 679.634 188.09 677.832 187.547C677.479 187.447 677.354 187.219 677.456 186.861C677.553 186.503 677.778 186.372 678.13 186.467C679.865 186.981 681.635 187.292 683.439 187.4C683.807 187.415 683.984 187.61 683.969 187.985C683.976 188.375 683.788 188.57 683.406 188.57L683.351 188.525ZM688.781 187.783C688.414 187.844 688.2 187.689 688.138 187.316C688.075 186.942 688.227 186.723 688.593 186.658C690.27 186.036 691.672 185.02 692.799 183.611C693.023 183.265 693.293 183.224 693.608 183.486C693.923 183.749 693.937 184.027 693.649 184.319C692.393 185.883 690.833 187.007 688.969 187.693L688.781 187.783ZM672.799 185.669C672.721 185.685 672.644 185.685 672.567 185.669L671.253 185.028C670.006 184.398 668.77 183.903 667.567 183.386C667.221 183.259 667.111 183.019 667.236 182.667C667.371 182.321 667.61 182.212 667.953 182.341C669.246 182.827 670.508 183.385 671.739 184.016C672.114 184.207 672.545 184.421 673.03 184.646C673.398 184.724 673.544 184.951 673.466 185.326C673.389 185.701 673.166 185.849 672.799 185.77L672.799 185.669ZM646.308 183.769C645.942 183.842 645.722 183.692 645.648 183.318C645.575 182.945 645.721 182.72 646.088 182.644C647.801 181.846 649.578 181.243 651.419 180.834C651.787 180.755 652.009 180.903 652.087 181.278C652.164 181.653 652.019 181.879 651.651 181.958C649.887 182.357 648.184 182.938 646.54 183.701C646.468 183.74 646.39 183.762 646.308 183.769ZM662.501 181.891H662.401C660.658 181.558 658.899 181.39 657.125 181.385C656.754 181.386 656.552 181.199 656.518 180.823C656.487 180.454 656.652 180.267 657.015 180.26H657.125C658.98 180.26 660.82 180.433 662.644 180.778C663.012 180.846 663.159 181.067 663.086 181.441C663.024 181.816 662.811 181.966 662.445 181.891H662.501Z" fill="#598DC7"/>
<path d="M722.148 181.542H690.139C689.771 181.542 689.587 181.355 689.587 180.98C689.587 180.605 689.771 180.418 690.139 180.418H722.148C722.516 180.418 722.7 180.605 722.7 180.98C722.7 181.355 722.516 181.542 722.148 181.542Z" fill="#598DC7"/>
<path d="M463.316 249.57H431.307C430.94 249.57 430.756 249.383 430.756 249.008C430.756 248.633 430.94 248.446 431.307 248.446H463.316C463.684 248.446 463.868 248.633 463.868 249.008C463.868 249.383 463.684 249.57 463.316 249.57Z" fill="#598DC7"/>
<path d="M197.313 57.8544C196.944 57.8544 196.759 57.667 196.759 57.2922V21.8732C196.759 21.4984 196.944 21.311 197.313 21.311C197.682 21.311 197.866 21.4984 197.866 21.8732V57.2922C197.866 57.667 197.682 57.8544 197.313 57.8544Z" fill="#598DC7"/>
<path d="M167.344 64.7811C166.976 64.8636 166.751 64.7174 166.671 64.3426C166.59 63.9678 166.733 63.7391 167.101 63.6567L203.702 45.5986C204.045 45.3996 204.302 45.4817 204.472 45.8449C204.643 46.2082 204.544 46.4634 204.176 46.6106L167.587 64.7249C167.509 64.7586 167.428 64.7774 167.344 64.7811Z" fill="#598DC7"/>
</svg>
