<svg width="36" height="30" viewBox="0 0 36 30" fill="none" xmlns="http://www.w3.org/2000/svg">
<path fill-rule="evenodd" clip-rule="evenodd" d="M25.6418 17.1189C27.8837 18.8626 29.4546 21.2251 29.4546 24.3751V30.0001H36V24.3751C36 20.2876 30.1582 17.8689 25.6418 17.1189Z" fill="#243766"/>
<path d="M13.0909 15C16.7059 15 19.6364 11.6421 19.6364 7.5C19.6364 3.35786 16.7059 0 13.0909 0C9.47597 0 6.54547 3.35786 6.54547 7.5C6.54547 11.6421 9.47597 15 13.0909 15Z" fill="#243766"/>
<path fill-rule="evenodd" clip-rule="evenodd" d="M22.909 15C26.5253 15 29.4544 11.6438 29.4544 7.5C29.4544 3.35625 26.5253 0 22.909 0C22.1399 0 21.4199 0.1875 20.7326 0.45C22.0908 2.38125 22.909 4.8375 22.909 7.5C22.909 10.1625 22.0908 12.6188 20.7326 14.55C21.4199 14.8125 22.1399 15 22.909 15Z" fill="#243766"/>
<path fill-rule="evenodd" clip-rule="evenodd" d="M13.0909 16.875C8.72182 16.875 0 19.3875 0 24.375V30H26.1818V24.375C26.1818 19.3875 17.46 16.875 13.0909 16.875Z" fill="#243766"/>
</svg>
