<svg width="26" height="30" viewBox="0 0 26 30" fill="none" xmlns="http://www.w3.org/2000/svg">
<path d="M5.83375 5.2525C4.56625 4.05281 4.56625 2.09946 5.83375 0.899769C7.10125 -0.299923 9.165 -0.299923 10.4325 0.899769C11.7 2.09946 11.7 4.05281 10.4325 5.2525C9.14875 6.46757 7.10125 6.46757 5.83375 5.2525ZM3.25 21.5406V7.69803H0V21.5406C0 25.7857 3.64 29.231 8.125 29.231H17.875V26.1548H8.125C5.4275 26.1548 3.25 24.0938 3.25 21.5406ZM26 27.8006L17.7613 20.0026H12.1875V14.3425C14.4625 16.1113 18.0375 17.6647 21.125 17.6647V14.3425C18.4275 14.3732 15.2587 13.0044 13.5362 11.2048L11.2613 8.82082C10.9525 8.49782 10.5625 8.23635 10.14 8.05178C9.66875 7.83645 9.1325 7.69803 8.58 7.69803H8.53125C6.51625 7.69803 4.875 9.25147 4.875 11.1587V20.0026C4.875 22.5558 7.0525 24.6168 9.75 24.6168H17.9887L23.6762 30L26 27.8006Z" fill="#243766"/>
</svg>
