<svg width="32" height="30" viewBox="0 0 32 30" fill="none" xmlns="http://www.w3.org/2000/svg">
<path d="M14.4159 16.4438L15.4229 17.2412L12.877 19.2513H19.3801V13.6364H20.7985V20.3743H12.877L15.4229 22.3845L14.4159 23.1818L10.1608 19.8128L14.4159 16.4438Z" fill="#243766"/>
<path d="M28.8 2.72727H27.2V0H24V2.72727H8V0H4.8V2.72727H3.2C1.44 2.72727 0 3.95455 0 5.45455V27.2727C0 28.7727 1.44 30 3.2 30H28.8C30.56 30 32 28.7727 32 27.2727V5.45455C32 3.95455 30.56 2.72727 28.8 2.72727ZM28.8 27.2727H3.2V9.54545H28.8V27.2727Z" fill="#243766"/>
</svg>
